<svg xmlns="http://www.w3.org/2000/svg" width="30" height="19.693" viewBox="0 0 30 19.693">
  <g id="Group_345" data-name="Group 345" transform="translate(-13 -369.821)">
    <g id="dubai" transform="translate(13 369.826)">
      <path id="Path_724" data-name="Path 724" d="M101.982,244.78V225.8c.123-.117.186-.315.405-.3l3.3.007,5.547.009q0,3.248.006,6.5V233.5q0,5.782,0,11.565c-.146,0-.292.008-.438.008l-8.41.007C102.168,245.095,102.1,244.9,101.982,244.78Z" transform="translate(-101.982 -225.447)" fill="#e93546"/>
      <path id="Path_725" data-name="Path 725" d="M249.99,314.408v6.562H229.316v-6.562Z" transform="translate(-219.99 -307.847)" fill="#f2f3f4"/>
      <path id="Path_726" data-name="Path 726" d="M229.143,404.015h20.674v6.212c-.175.069-.23.324-.464.3a.5.5,0,0,0-.055-.007H229.145l-.014-.013c0-.264,0-.526,0-.79Q229.138,406.867,229.143,404.015Z" transform="translate(-219.817 -390.892)" fill="#353744"/>
      <path id="Path_727" data-name="Path 727" d="M249.781,232.032H229.107l-.011-.005-.006-6.49.017-.009h18.629c.527,0,1.054,0,1.581-.006.25,0,.32.222.463.357Z" transform="translate(-219.781 -225.472)" fill="#6da12f"/>
      <path id="Path_728" data-name="Path 728" d="M249.41,224.86c-.527,0-1.054.006-1.581.006H229.2a.122.122,0,0,1-.009-.055h20.215A.105.105,0,0,0,249.41,224.86Z" transform="translate(-219.874 -224.807)" fill="#b1cc64"/>
      <path id="Path_729" data-name="Path 729" d="M229.2,492.829h20.152a.512.512,0,0,1,.055.007.111.111,0,0,0,0,.052H229.193a.171.171,0,0,1,.009-.058Z" transform="translate(-219.877 -473.199)" fill="#8c8d95"/>
      <path id="Path_730" data-name="Path 730" d="M116.433,224.8a.123.123,0,0,0,.009.055l-.017.009a.127.127,0,0,0-.055,0l-5.547-.009-3.3-.007a.156.156,0,0,0,0-.052Z" transform="translate(-107.116 -224.8)" fill="#f18b95"/>
      <path id="Path_731" data-name="Path 731" d="M116.439,492.694a.171.171,0,0,0-.009.056h-8.9a.156.156,0,0,0,0-.052l8.41-.007c.146,0,.292-.005.438-.008h.029l.029,0Z" transform="translate(-107.116 -473.065)" fill="#f18b95"/>
      <path id="Path_736" data-name="Path 736" d="M228.395,327.4l-.029,0h-.029q0-5.782,0-11.565v-1.493a.482.482,0,0,0,.055-.006l.011.006v6.562q0,2.852-.009,5.7C228.4,326.872,228.4,327.135,228.395,327.4Z" transform="translate(-219.084 -307.782)" fill="#eb505e"/>
      <path id="Path_737" data-name="Path 737" d="M228.4,232.159a.477.477,0,0,1-.055.006q0-3.248-.006-6.5a.128.128,0,0,1,.055,0Q228.4,228.913,228.4,232.159Z" transform="translate(-219.086 -225.604)" fill="#eb505c"/>
    </g>
  </g>
</svg>
