<svg xmlns="http://www.w3.org/2000/svg" width="30" height="19.687" viewBox="0 0 30 19.687">
  <g id="Group_346" data-name="Group 346" transform="translate(-13 -423.369)">
    <g id="euro" transform="translate(13 423.37)">
      <path id="Path_705" data-name="Path 705" d="M75.8,236.634V217.649c.161-.124.271-.333.518-.311.107.006.214.017.321.017h28.322c.107,0,.214-.011.321-.017a.535.535,0,0,1,.519.486v18.808c-.161.124-.271.333-.518.311-.107-.006-.214-.017-.321-.017H76.64c-.107,0-.214.011-.321.017C76.071,236.965,75.961,236.758,75.8,236.634Zm9.45-13.948a.576.576,0,0,0-.188.392c-.055.222-.153.329-.4.307-.139-.012-.366-.092-.414.075s.183.229.307.3a.3.3,0,0,1,.135.453c-.024.053-.034.111-.055.166-.032.09-.1.2-.009.268s.185-.04.246-.1a.45.45,0,0,1,.751,0,.07.07,0,0,0,.024.016c.075.031.128.149.225.089.121-.075.023-.178,0-.261-.13-.453-.133-.452.242-.742.016-.012.032-.022.047-.035.055-.049.153-.084.111-.18-.032-.07-.121-.062-.184-.05a.526.526,0,0,1-.709-.517.248.248,0,0,0-.044-.107A.445.445,0,0,0,85.25,222.686Zm12.231,1.868a.238.238,0,0,0-.015-.082.54.54,0,0,1,.277-.871l.023-.018a.118.118,0,0,0,.064-.146c-.019-.055-.075-.055-.123-.055a1,1,0,0,0-.2,0c-.3.052-.48-.064-.516-.378a.464.464,0,0,0-.038-.111c-.031-.078-.032-.194-.144-.19-.093,0-.111.111-.121.181a.517.517,0,0,1-.694.5.186.186,0,0,0-.058,0c-.055.008-.124-.006-.143.069a.122.122,0,0,0,.085.137.564.564,0,0,1,.284.9.144.144,0,0,0-.011.027.111.111,0,0,0,.034.131.089.089,0,0,0,.13-.015.61.61,0,0,1,1.017.005c.074.075.14.023.15-.087Zm-11.2,5.614a.083.083,0,0,0-.085-.1,1.266,1.266,0,0,0-.291-.008c-.265.038-.427-.052-.462-.333a.4.4,0,0,0-.044-.138c-.039-.073-.031-.2-.135-.206-.125,0-.132.129-.149.218-.063.345-.229.532-.61.46-.084-.016-.222-.051-.262.059-.05.135.1.184.181.225a.444.444,0,0,1,.222.7.184.184,0,0,0-.009.028c-.031.089-.1.195.006.261.088.055.163-.043.222-.1.247-.222.484-.328.753-.024.055.065.151.193.266.111s.019-.214-.021-.288a.447.447,0,0,1,.238-.7.32.32,0,0,0,.181-.164Zm10.507-.794a.438.438,0,0,0-.129.285c-.05.312-.215.453-.535.4a.625.625,0,0,0-.146,0c-.065,0-.152-.015-.18.06-.036.1.055.146.118.175a.529.529,0,0,1,.265.838.206.206,0,0,0-.032.081c0,.111.036.176.156.111a.883.883,0,0,0,.192-.132c.209-.207.414-.253.628-.009a.236.236,0,0,0,.072.049c.081.041.15.17.248.1s.029-.183-.013-.267c-.148-.3-.133-.54.206-.7.084-.04.236-.092.194-.222s-.208-.083-.308-.071c-.313.037-.494-.074-.538-.394a.812.812,0,0,0-.066-.192.131.131,0,0,0-.13-.1Zm-9.09,4.028c.124.087.238.175.362.25.084.051.16.19.272.1.089-.069.022-.192-.02-.268-.185-.336-.078-.555.243-.721.08-.041.207-.094.166-.208s-.171-.085-.262-.069a.459.459,0,0,1-.615-.444c-.011-.079-.013-.222-.15-.214s-.13.146-.141.228a.45.45,0,0,1-.6.433c-.094-.015-.24-.055-.275.087-.028.111.1.161.18.2a.444.444,0,0,1,.229.7.131.131,0,0,0-.022.055c0,.08-.09.174.013.238.083.052.143-.033.2-.074C87.418,233.6,87.55,233.5,87.694,233.4Zm7.23.388c.2-.055.1-.189.071-.277-.129-.465-.131-.463.233-.742.073-.055.206-.093.16-.211s-.173-.083-.263-.068c-.344.055-.551-.055-.6-.423-.012-.087-.013-.247-.164-.236-.121.009-.124.15-.138.233-.055.313-.19.486-.54.428-.106-.018-.277-.055-.321.063-.055.149.136.18.219.263a.369.369,0,0,0,.093.07c.189.1.219.222.146.425-.05.14-.213.336-.055.444.129.089.272-.111.381-.2a.3.3,0,0,1,.471.016A2.938,2.938,0,0,0,94.924,233.79Zm-2.965-13.513c-.053-.136-.177-.111-.272-.094-.359.059-.569-.06-.615-.444-.009-.078-.013-.222-.145-.222s-.133.138-.144.222c-.05.378-.266.5-.622.434a.105.105,0,0,0-.029,0c-.083.007-.191-.03-.222.084-.026.095.07.128.128.175.388.316.391.316.26.776a.158.158,0,0,0-.01.027c-.006.073-.07.159.016.214s.143-.029.207-.068a.619.619,0,0,0,.118-.087.356.356,0,0,1,.586-.008.43.43,0,0,0,.1.067c.079.048.151.163.252.088s.006-.183-.018-.266c-.125-.444-.13-.444.237-.721C91.848,220.411,91.936,220.378,91.959,220.277Zm6.675,6.685c-.033-.134-.144-.1-.235-.106-.495-.018-.493-.019-.656-.458-.028-.075-.018-.2-.134-.2-.133,0-.137.133-.15.218a.46.46,0,0,1-.616.444c-.087-.016-.222-.046-.259.069s.088.17.166.208a.459.459,0,0,1,.237.719c-.043.082-.105.2-.019.269.111.083.2-.04.272-.106a.436.436,0,0,1,.71-.006c.067.068.162.19.272.118s.023-.205-.017-.287a.439.439,0,0,1,.216-.683.359.359,0,0,0,.211-.2Zm-6.675,6.671c-.047-.144-.175-.111-.268-.1-.354.055-.57-.055-.616-.437-.009-.081-.018-.222-.14-.229s-.136.129-.15.217c-.055.359-.241.519-.614.449-.085-.016-.218-.052-.258.067s.087.172.166.21a.459.459,0,0,1,.239.716c-.044.084-.1.2-.021.27s.186-.028.249-.092a.462.462,0,0,1,.759,0c.062.065.151.166.249.1.114-.083.02-.21-.021-.289a.437.437,0,0,1,.222-.682.342.342,0,0,0,.2-.2Zm-7.71-5.862c.137.1.27.19.405.282.07.048.139.137.231.074s.012-.163-.009-.237c-.133-.476-.134-.474.227-.749.073-.055.206-.092.166-.209s-.166-.087-.258-.073c-.333.051-.555-.033-.61-.408-.013-.093-.017-.248-.149-.252s-.141.153-.156.246a.433.433,0,0,1-.581.412.382.382,0,0,0-.088,0c-.075,0-.17-.022-.2.078s.06.144.125.175a.5.5,0,0,1,.255.807.066.066,0,0,0-.009.027c-.006.065-.052.142.019.189s.128-.009.184-.049c.146-.1.29-.2.447-.312Zm4.479-6.76c-.059-.116-.181-.092-.273-.075-.363.064-.569-.07-.606-.444a.089.089,0,0,0-.011-.027c-.036-.075-.026-.2-.131-.205-.131-.006-.121.13-.152.215-.161.448-.16.444-.626.458-.089,0-.216-.051-.25.078-.027.1.089.139.154.19.366.288.364.286.236.76-.021.078-.088.179,0,.241s.159-.037.227-.084c.4-.277.4-.277.777-.012.075.052.153.166.25.089s.023-.191-.02-.269a.458.458,0,0,1,.24-.718.281.281,0,0,0,.182-.2Zm6.667.039c.011-.088-.04-.111-.222-.118-.5-.016-.5-.016-.666-.48-.029-.079-.026-.2-.14-.191s-.1.125-.133.2c-.166.458-.166.458-.645.468h-.058c-.068,0-.148-.013-.178.065s.039.129.1.158c.373.192.521.455.285.85a.123.123,0,0,0-.006.028c-.016.056-.043.12.009.166s.136.013.181-.036a.551.551,0,0,1,.921.007.125.125,0,0,0,.158.038c.063-.038.042-.1.027-.156a.962.962,0,0,0-.068-.222c-.144-.257-.059-.424.185-.555a.576.576,0,0,0,.255-.226Z" transform="translate(-75.8 -217.299)" fill="#22388b"/>
      <path id="Path_706" data-name="Path 706" d="M111.792,216.84c-.107.006-.214.017-.321.017H83.15c-.107,0-.214-.011-.321-.017a.033.033,0,0,1,.009-.041h28.944A.032.032,0,0,1,111.792,216.84Z" transform="translate(-82.312 -216.8)" fill="#858dc0"/>
      <path id="Path_707" data-name="Path 707" d="M82.832,484.843c.107-.006.214-.017.321-.017h28.322c.107,0,.214.011.321.017a.033.033,0,0,1-.009.041H82.841a.032.032,0,0,1-.009-.041Z" transform="translate(-82.313 -465.198)" fill="#858dc0"/>
      <path id="Path_712" data-name="Path 712" d="M192.085,290.355a.445.445,0,0,1,.084.072.249.249,0,0,1,.044.107.526.526,0,0,0,.709.518c.063-.012.152-.02.184.05.043.1-.055.131-.111.18-.014.013-.031.023-.047.035-.375.29-.372.289-.242.742.024.083.123.185,0,.261-.1.06-.15-.055-.225-.089a.068.068,0,0,1-.024-.016.45.45,0,0,0-.751,0c-.061.062-.149.173-.246.1s-.023-.178.009-.268c.019-.055.03-.111.055-.166a.3.3,0,0,0-.135-.453c-.124-.072-.351-.147-.307-.3s.277-.087.414-.075c.249.022.347-.085.4-.307A.576.576,0,0,1,192.085,290.355Z" transform="translate(-182.635 -284.969)" fill="#fcd146"/>
      <path id="Path_713" data-name="Path 713" d="M350.418,292.433c-.009.111-.077.162-.151.085a.61.61,0,0,0-1.017-.005.089.089,0,0,1-.13.015.111.111,0,0,1-.034-.131.137.137,0,0,1,.01-.027.564.564,0,0,0-.284-.9.122.122,0,0,1-.085-.137c.018-.075.088-.061.143-.069a.183.183,0,0,1,.058,0,.517.517,0,0,0,.694-.5c.009-.068.028-.177.121-.181.111,0,.111.111.144.19a.46.46,0,0,1,.038.111c.035.314.211.429.516.378a.992.992,0,0,1,.2,0c.048,0,.1,0,.123.055a.118.118,0,0,1-.064.146l-.023.018a.54.54,0,0,0-.277.871.24.24,0,0,1,.016.083Z" transform="translate(-328.737 -285.18)" fill="#fcd146"/>
      <path id="Path_714" data-name="Path 714" d="M192.967,382.559a.319.319,0,0,1-.181.166.447.447,0,0,0-.238.7c.04.075.142.2.021.288s-.208-.047-.266-.111c-.27-.3-.506-.2-.753.024-.06.056-.135.151-.222.1-.108-.067-.037-.172-.006-.261a.18.18,0,0,1,.009-.028.444.444,0,0,0-.222-.7c-.083-.041-.232-.089-.181-.225.041-.111.178-.074.262-.059.381.072.547-.115.61-.46.016-.089.023-.222.149-.218.1,0,.095.132.135.206a.4.4,0,0,1,.044.138c.035.277.2.369.462.333a1.263,1.263,0,0,1,.291.008.083.083,0,0,1,.085.1Z" transform="translate(-182.488 -369.691)" fill="#fdd146"/>
      <path id="Path_715" data-name="Path 715" d="M349.71,381.67a.131.131,0,0,1,.131.1.817.817,0,0,1,.066.192c.044.321.225.432.538.394.1-.012.261-.07.308.071s-.111.179-.194.222c-.338.164-.353.4-.206.7.042.085.105.2.013.267s-.166-.055-.249-.1a.237.237,0,0,1-.072-.049c-.214-.244-.419-.2-.628.009a.881.881,0,0,1-.192.132c-.12.068-.159,0-.156-.111a.206.206,0,0,1,.032-.081.529.529,0,0,0-.265-.838c-.064-.029-.155-.079-.118-.175.028-.075.114-.055.18-.06a.631.631,0,0,1,.146,0c.32.055.484-.084.535-.4A.437.437,0,0,1,349.71,381.67Z" transform="translate(-328.725 -369.596)" fill="#fdd146"/>
      <path id="Path_716" data-name="Path 716" d="M225.292,416.794c-.144.1-.277.2-.413.29-.062.041-.121.126-.2.074-.1-.064-.016-.158-.013-.238a.132.132,0,0,1,.022-.055.444.444,0,0,0-.228-.7c-.079-.04-.209-.088-.18-.2.034-.14.181-.1.275-.087a.451.451,0,0,0,.6-.433c.012-.082.016-.222.141-.228s.139.135.15.214a.459.459,0,0,0,.615.444c.09-.016.222-.036.262.069s-.085.166-.166.208a.461.461,0,0,0-.243.721c.042.076.111.2.02.268-.111.087-.188-.052-.272-.1C225.53,416.97,225.415,416.881,225.292,416.794Z" transform="translate(-213.398 -400.69)" fill="#f8ce48"/>
      <path id="Path_717" data-name="Path 717" d="M317.019,417.189a2.943,2.943,0,0,1-.309-.222.3.3,0,0,0-.471-.016c-.111.1-.252.293-.381.2-.157-.111.006-.3.055-.444.073-.2.043-.333-.146-.425a.37.37,0,0,1-.093-.07c-.083-.083-.274-.114-.219-.263.044-.12.214-.081.321-.063.349.059.486-.115.54-.428.014-.083.018-.222.138-.233.151-.011.151.149.164.236.052.368.258.479.6.423.09-.014.222-.039.263.068s-.088.155-.16.211c-.365.277-.362.277-.234.742C317.115,417,317.217,417.134,317.019,417.189Z" transform="translate(-297.895 -400.699)" fill="#f8ce48"/>
      <path id="Path_718" data-name="Path 718" d="M270.442,247.9c-.023.1-.111.135-.179.186-.367.277-.363.277-.237.721.023.083.122.189.018.266s-.174-.04-.252-.088a.428.428,0,0,1-.1-.067.356.356,0,0,0-.586.008.616.616,0,0,1-.118.087c-.064.039-.125.121-.207.068s-.021-.141-.016-.214a.154.154,0,0,1,.01-.027c.131-.463.131-.463-.26-.776-.055-.047-.154-.08-.128-.175.031-.114.14-.077.222-.084a.105.105,0,0,1,.029,0c.356.068.571-.055.622-.434.012-.086.016-.222.144-.222s.136.143.145.222c.047.38.256.5.615.444C270.264,247.789,270.391,247.763,270.442,247.9Z" transform="translate(-254.283 -244.922)" fill="#f9cf47"/>
      <path id="Path_719" data-name="Path 719" d="M361.57,339.057a.359.359,0,0,1-.209.2.439.439,0,0,0-.216.683c.04.083.134.211.017.287s-.206-.049-.272-.117a.436.436,0,0,0-.71.006c-.068.066-.163.19-.272.106-.086-.065-.024-.187.019-.269a.459.459,0,0,0-.238-.718c-.079-.039-.206-.092-.166-.209s.172-.085.259-.069a.46.46,0,0,0,.616-.444c.013-.085.017-.222.15-.218.115,0,.105.126.134.2.163.44.161.44.656.458C361.427,338.954,361.537,338.923,361.57,339.057Z" transform="translate(-338.737 -329.395)" fill="#facf47"/>
      <path id="Path_720" data-name="Path 720" d="M270.443,430.2a.342.342,0,0,1-.207.2.437.437,0,0,0-.222.682c.04.079.135.205.02.289-.1.072-.187-.032-.249-.1a.462.462,0,0,0-.759,0c-.063.063-.154.17-.249.092s-.024-.186.021-.27a.459.459,0,0,0-.239-.716c-.077-.038-.2-.091-.166-.21s.174-.083.258-.067c.372.07.555-.09.614-.449.014-.088.023-.222.15-.217s.13.148.14.229c.046.383.262.492.616.437C270.268,430.089,270.4,430.056,270.443,430.2Z" transform="translate(-254.285 -413.865)" fill="#fad047"/>
      <path id="Path_721" data-name="Path 721" d="M178.254,339.887l-.444.312c-.055.04-.116.093-.184.049s-.025-.124-.019-.189a.066.066,0,0,1,.009-.027.5.5,0,0,0-.255-.806c-.064-.032-.152-.079-.125-.175s.123-.074.2-.078a.379.379,0,0,1,.088,0,.433.433,0,0,0,.581-.412c.014-.094.018-.25.156-.246s.136.16.149.252c.05.375.274.46.61.408.089-.014.222-.041.259.073s-.095.154-.166.209c-.362.277-.359.273-.227.749.021.074.111.166.009.237s-.161-.026-.231-.074C178.524,340.078,178.391,339.983,178.254,339.887Z" transform="translate(-169.805 -329.416)" fill="#facf47"/>
      <path id="Path_722" data-name="Path 722" d="M226.328,258.006a.281.281,0,0,1-.18.2.458.458,0,0,0-.24.718c.042.078.107.2.02.27s-.175-.037-.25-.089c-.379-.263-.378-.263-.776.012-.069.047-.136.146-.227.084s-.025-.162,0-.241c.129-.474.13-.472-.236-.76-.065-.052-.181-.088-.154-.19.034-.129.161-.076.25-.078.466-.011.465-.009.626-.458.031-.084.021-.222.152-.215.105.005.1.13.131.205a.088.088,0,0,1,.011.027c.037.373.243.507.606.444C226.146,257.914,226.268,257.89,226.328,258.006Z" transform="translate(-213.399 -254.293)" fill="#fbd047"/>
      <path id="Path_723" data-name="Path 723" d="M317.4,258.036a.576.576,0,0,1-.256.222c-.243.133-.328.3-.185.555a.958.958,0,0,1,.068.222c.015.055.036.119-.027.156a.125.125,0,0,1-.158-.038.551.551,0,0,0-.921-.007c-.045.049-.115.091-.181.036s-.026-.108-.009-.166a.119.119,0,0,1,.006-.028c.236-.394.089-.658-.285-.85-.055-.029-.128-.076-.1-.158s.111-.064.178-.065h.058c.479-.01.478-.011.645-.468.028-.078.024-.2.133-.2s.111.111.14.191c.169.465.17.465.666.48C317.364,257.923,317.414,257.948,317.4,258.036Z" transform="translate(-297.809 -254.284)" fill="#fbd047"/>
    </g>
  </g>
</svg>
