<svg xmlns="http://www.w3.org/2000/svg" width="30" height="19.688" viewBox="0 0 30 19.688">
  <g id="Group_345" data-name="Group 345" transform="translate(-13 -316.518)">
    <g id="usa" transform="translate(13 316.521)">
      <path id="Path_738" data-name="Path 738" d="M115.459,244.8h.059c.028.083.1.05.159.067a.682.682,0,0,1,.266.61c-.011.282.006.565.011.848q-.036.759,0,1.518c-.022.5-.026,1.008,0,1.511a13.718,13.718,0,0,0,0,1.516,14.573,14.573,0,0,0,0,1.5,15.053,15.053,0,0,0,0,1.517c0,.289-.023.578-.011.866a.61.61,0,0,1-.384.642c-.117,0-.233.01-.351.01q-6.243,0-12.486.006a.772.772,0,0,1-.739-.356V245.21c.105-.174.2-.36.444-.365.049,0,.1.012.145.012h12.642C115.3,244.855,115.393,244.885,115.459,244.8Zm-9.289,4.742c-.055.354-.26.45-.586.429a.464.464,0,0,1,.219.7.491.491,0,0,1,.747,0,.484.484,0,0,1,.215-.7C106.412,250.017,106.26,249.847,106.169,249.542Zm-1.976-2.3c.24.271.237.271.241.579,0,.2.116.08.162.038a.24.24,0,0,1,.374.007.143.143,0,0,0,.176.04c-.077-.222-.111-.44.157-.573.047-.023.014-.111-.038-.1-.3.062-.385-.159-.514-.417.009.418-.277.417-.56.429Zm9.527.045c-.392-.141-.392-.141-.61-.47-.031.347-.234.456-.56.444a.469.469,0,0,1,.222.7c.238-.208.44-.252.652-.044.041.04.111-.022.083-.066C113.347,247.58,113.529,247.431,113.72,247.284Zm-5.575,0a.81.81,0,0,1-.6-.434c-.074.238-.166.444-.468.385-.055-.011-.079.079-.033.1.27.132.237.349.166.619a.529.529,0,0,1,.753-.017c-.262-.34-.017-.49.178-.654Zm6.407,4.061c-.111.244-.194.457-.5.4-.074-.014-.072.1-.016.121.286.125.185.351.115.643.253-.21.457-.3.671-.084.033.034.106-.023.075-.073-.171-.273.034-.41.225-.591C114.811,251.777,114.6,251.674,114.552,251.34Zm-5-4.965c-.318.013-.525-.092-.56-.444-.166.166-.116.471-.413.4-.052-.012-.13-.02-.153.049-.028.085.055.118.111.149a.222.222,0,0,1,.1.321.142.142,0,0,0,.04.209c.179-.294.4-.154.647-.023-.148-.3-.036-.493.231-.665Zm5-.417c-.114.222-.162.455-.458.383a.105.105,0,0,0-.09.051c-.018.055.028.09.07.111.19.095.2.236.117.409a.1.1,0,0,0,.042.14.4.4,0,0,1,.585-.033c.1.082.086-.076.059-.134a.251.251,0,0,1,.124-.377c.044-.023.111-.055.07-.161a.407.407,0,0,1-.52-.388Zm-7.783,5.783c-.405.126-.48-.145-.6-.4-.052.337-.26.438-.571.419.2.181.379.311.233.6-.049.1.1.073.147.022.15-.157.282-.115.419.014a.111.111,0,0,0,.154.011C106.422,252.152,106.47,251.937,106.768,251.741Zm1.394.9a.519.519,0,0,1-.606-.408c-.083.254-.171.431-.451.38-.067-.012-.118.079-.055.111.284.134.215.359.166.62a.475.475,0,0,1,.728,0c-.17-.326-.055-.525.219-.7Zm-3.735.687c.255-.239.474-.2.743.088-.075-.326-.149-.544.125-.7.1-.055-.032-.12-.1-.111a.257.257,0,0,1-.326-.234c-.01-.052-.02-.12-.143-.111.031.35-.244.352-.61.374C104.444,252.818,104.59,253,104.427,253.327Zm1.377-6.234c.26-.337.5-.166.782.008-.114-.3-.181-.5.089-.622a.072.072,0,0,0,.039-.1.1.1,0,0,0-.127-.045c-.215.044-.3-.075-.333-.258-.009-.045-.031-.091-.123-.089-.015.307-.23.388-.541.388a.486.486,0,0,1,.214.714Zm7.305,5.108c-.023.354-.237.449-.545.44.215.175.373.318.23.6-.047.091.088.08.131.034.166-.179.315-.124.466.018.028.026.069.034.131-.024-.184-.253-.022-.444.222-.615C113.363,252.577,113.363,252.577,113.11,252.2Zm-1.006-5.131c-.049-.258-.1-.469.163-.625.1-.055-.041-.117-.111-.107a.255.255,0,0,1-.323-.236c-.011-.051-.016-.121-.147-.1.042.357-.243.344-.524.388a.486.486,0,0,1,.24.682.444.444,0,0,1,.7,0Zm-2.769,5.374c-.214-.336,0-.5.21-.693a.468.468,0,0,1-.58-.407c-.094.254-.189.44-.478.388a.063.063,0,0,0-.033.119c.269.129.207.347.16.61a.466.466,0,0,1,.72-.018Zm2.76,0c.012-.2-.166-.413.1-.536.049-.022.111-.062.088-.131s-.1-.055-.153-.048c-.189.033-.262-.07-.3-.231-.012-.052-.016-.121-.133-.114,0,.327-.237.377-.544.388a.495.495,0,0,1,.246.683.451.451,0,0,1,.692-.014Zm-1.734-5.624c-.073.152-.118.349-.179.354-.4.035-.4.139-.123.388.074.067-.107.222-.011.388.2-.235.424-.222.683.069-.047-.314-.15-.555.143-.683.067-.029.009-.124-.052-.111-.3.06-.358-.171-.461-.409Zm-6.619,5.7a.721.721,0,0,1,.16-.66c.077-.124-.028-.134-.1-.126-.185.019-.3-.04-.329-.235-.008-.048-.018-.124-.12-.111-.063.2-.127.408-.42.348-.061-.012-.127.075-.06.106.287.134.2.366.137.692.267-.287.486-.317.735-.018Zm6.04.142c.294.158.339.376.222.7.246-.307.474-.171.756.017-.115-.306-.132-.5.111-.647.1-.063-.031-.125-.1-.111-.216.037-.293-.086-.337-.263-.011-.047-.03-.094-.119-.077-.021.285-.216.377-.531.383Zm3.356-2.219c-.069.315-.237.456-.566.379a.816.816,0,0,1,.229.788c.233-.342.46-.239.721-.064a.475.475,0,0,1,.219-.7c-.378.086-.494-.125-.6-.407Zm-6.391-2.281c-.372.1-.469-.141-.582-.411-.053.349-.258.45-.586.436.328.158.357.388.237.695.253-.277.483-.184.731-.024a.5.5,0,0,1,.2-.7Zm5.977,1.583a.907.907,0,0,1,.882.009c-.324-.339-.071-.509.123-.745-.419.182-.464-.132-.6-.375a.456.456,0,0,1-.572.421c.261.177.384.364.164.687Zm-8.545-.689c.374.149.325.4.251.728.242-.366.473-.173.724-.052-.177-.307-.023-.493.2-.683-.337.055-.476-.122-.572-.409-.078.3-.222.474-.6.413Zm7.94-.195c-.189-.317.006-.5.2-.715-.385.133-.455-.153-.586-.388-.039.359-.258.43-.573.428a.469.469,0,0,1,.225.683.5.5,0,0,1,.734-.009Zm-2.343.2a.474.474,0,0,1,.222.69.495.495,0,0,1,.735-.013c-.213-.329.011-.5.2-.721-.394.15-.461-.138-.606-.444-.043.389-.225.508-.553.485Zm-6.756-2.006c.231-.133.412-.242.641-.038.089.08.088-.085.063-.138a.236.236,0,0,1,.111-.359c.049-.026.111-.064.088-.13s-.1-.061-.153-.052c-.186.031-.263-.066-.3-.231-.011-.048-.017-.123-.143-.111.029.344-.244.352-.526.395a.444.444,0,0,1,.22.661Zm4.548,3.381a.5.5,0,0,1-.583.428c.317.159.321.395.222.688.25-.245.477-.214.758,0-.253-.347-.033-.516.178-.715-.333.058-.493-.1-.571-.405Zm-.361-.688a.5.5,0,0,1,.755.012c-.268-.355,0-.519.181-.732-.356.09-.49-.1-.595-.42-.012.4-.263.444-.577.46.354.148.327.387.238.678Zm1.754,3.4c-.063.343-.267.431-.58.433.308.154.315.392.234.71.239-.357.46-.186.712-.047-.166-.309-.027-.5.222-.689a.45.45,0,0,1-.586-.408Zm3.367.413c-.37.084-.475-.145-.6-.424-.027.378-.261.437-.576.444.314.153.344.381.232.69a.478.478,0,0,1,.73-.01.483.483,0,0,1,.212-.7Zm-1.983-3.117c-.047.349-.265.423-.577.428.324.149.318.392.241.679.244-.25.464-.209.713,0a.5.5,0,0,1,.217-.7c-.35.06-.494-.114-.591-.408Zm3.611-2.269a.475.475,0,0,1,.211.7.493.493,0,0,1,.745.011c-.193-.333-.036-.531.216-.733-.392.13-.482-.122-.6-.461-.08.352-.2.556-.568.485Zm-5-.435c-.006.417-.285.423-.581.46.35.145.31.391.236.674a.452.452,0,0,1,.71,0,.49.49,0,0,1,.233-.691c-.309,0-.529-.068-.6-.447Zm-5.614-.029c-.007.409-.229.474-.555.483.361.137.333.388.251.677a.463.463,0,0,1,.714,0c-.156-.318-.034-.52.244-.683-.4-.076-.4-.076-.653-.484Zm3.207,6.537c-.189-.319,0-.5.2-.708-.377.117-.47-.133-.586-.4-.051.349-.26.448-.586.437.341.152.348.388.237.682a.493.493,0,0,1,.734-.016Zm5.783-4.271c-.368.074-.479-.15-.587-.426-.049.351-.268.436-.583.444.338.148.327.392.245.7.249-.326.468-.182.715-.027-.1-.279-.115-.515.213-.689Zm1.624,0c.316.166.329.4.227.717.246-.339.476-.178.737-.041-.166-.3-.055-.506.222-.707-.417.151-.487-.14-.615-.393a.456.456,0,0,1-.569.424Zm.96,4.271c-.2-.324-.012-.5.211-.7-.352.073-.5-.091-.583-.412a.489.489,0,0,1-.593.435c.333.161.328.4.235.687a.491.491,0,0,1,.734-.014Zm-11.884-3.571c.246-.253.472-.211.732-.013-.19-.321-.019-.508.2-.7-.364.086-.471-.143-.59-.409-.04.345-.256.437-.571.438.329.153.34.382.231.682Zm.349,2.477c-.04.359-.281.414-.6.438.417.122.3.4.268.677.232-.251.459-.206.727-.017-.222-.333-.019-.5.2-.705-.347.083-.49-.089-.59-.395Zm.807-2.286c.382.14.3.4.255.689.236-.257.456-.211.725,0-.186-.314-.073-.52.2-.713-.379.1-.476-.145-.6-.4a.463.463,0,0,1-.58.425Zm5.128-.138c-.037-.449-.037-.449.265-.828-.407.179-.51-.071-.627-.333-.055.33-.258.424-.572.433.347.146.3.393.226.674.242-.206.463-.275.709.051Z" transform="translate(-101.982 -244.801)" fill="#23398b"/>
      <path id="Path_739" data-name="Path 739" d="M101.982,384.812a.772.772,0,0,0,.739.355q6.243-.012,12.486-.006c.117,0,.233-.007.351-.01.136,0,.273.008.409.008l16.014,0v1.523c-.088,0-.175-.009-.263-.009H102.245c-.088,0-.175.006-.263.009Z" transform="translate(-101.982 -374.56)" fill="#f2f0f1"/>
      <path id="Path_740" data-name="Path 740" d="M131.981,472.02v1.524h-30V472.02c.127,0,.253,0,.38,0h28.154Z" transform="translate(-101.982 -455.382)" fill="#f2f1f2"/>
      <path id="Path_741" data-name="Path 741" d="M131.981,452.742c-.488,0-.976,0-1.463,0H102.362c-.127,0-.253,0-.38,0v-1.524c.1,0,.195.013.292.013h29.415c.1,0,.194-.008.292-.013Z" transform="translate(-101.982 -436.103)" fill="#e93747"/>
      <path id="Path_742" data-name="Path 742" d="M131.981,431.94c-.1,0-.195.013-.292.013H102.274c-.1,0-.194-.008-.292-.013v-1.524c.116.007.232.021.348.021h29.3c.117,0,.232-.013.348-.021Z" transform="translate(-101.982 -416.824)" fill="#f2eeef"/>
      <path id="Path_743" data-name="Path 743" d="M131.981,411.764c-.116.007-.232.021-.348.021h-29.3c-.116,0-.232-.013-.348-.021V410.3c.088,0,.175-.009.263-.009h29.473c.088,0,.175.006.263.009Z" transform="translate(-101.982 -398.172)" fill="#e93546"/>
      <path id="Path_744" data-name="Path 744" d="M101.982,492.794h30v1.172c-.145.111-.23.316-.457.3-.088,0-.175-.01-.263-.01H102.7c-.088,0-.175.007-.263.01-.228.012-.312-.191-.457-.3Z" transform="translate(-101.982 -474.632)" fill="#e93546"/>
      <path id="Path_745" data-name="Path 745" d="M303.779,370.335l-16.014,0c-.136,0-.273-.006-.409-.008a.61.61,0,0,0,.384-.642c-.012-.288.006-.577.01-.866l16.029,0Z" transform="translate(-273.78 -359.731)" fill="#e83647"/>
      <path id="Path_746" data-name="Path 746" d="M292.519,267.123q-.037-.759,0-1.518h16.029v1.524Z" transform="translate(-278.549 -264.081)" fill="#f2f1f2"/>
      <path id="Path_747" data-name="Path 747" d="M292.526,286.358l16.029,0v1.523c-.126,0-.253-.013-.379-.013H292.528C292.5,287.366,292.5,286.862,292.526,286.358Z" transform="translate(-278.556 -283.316)" fill="#e93747"/>
      <path id="Path_748" data-name="Path 748" d="M308.544,349.533l-16.029,0c-.024-.506-.025-1.012,0-1.518h15.68c.117,0,.233-.005.351-.009Z" transform="translate(-278.546 -340.453)" fill="#f2f0f1"/>
      <path id="Path_749" data-name="Path 749" d="M292.513,307H308.16c.126,0,.253.008.379.013v1.524c-.126-.007-.252-.021-.377-.021H292.514A13.733,13.733,0,0,1,292.513,307Z" transform="translate(-278.54 -302.446)" fill="#f2eeef"/>
      <path id="Path_750" data-name="Path 750" d="M292.529,327.7h15.649c.126,0,.252.013.378.021v1.465c-.117,0-.233.009-.351.009H292.527A14.569,14.569,0,0,1,292.529,327.7Z" transform="translate(-278.556 -321.629)" fill="#e83546"/>
      <path id="Path_751" data-name="Path 751" d="M305.274,246.929H289.245c0-.282-.022-.566-.011-.848a.682.682,0,0,0-.266-.61c.136,0,.273-.008.409-.008h15.06c.126,0,.253-.007.379-.01.252,0,.337.2.457.362Z" transform="translate(-275.275 -245.408)" fill="#e83546"/>
      <path id="Path_752" data-name="Path 752" d="M108.224,512.836c.088,0,.175-.01.263-.01h28.559c.088,0,.175.007.263.01a.236.236,0,0,1-.012.048H108.234A.229.229,0,0,1,108.224,512.836Z" transform="translate(-107.767 -493.199)" fill="#ee6e7a"/>
      <path id="Path_753" data-name="Path 753" d="M302.8,244.848c-.127,0-.253.01-.379.01h-15.06c-.136,0-.273.005-.409.008-.055-.016-.131.016-.159-.067h16A.224.224,0,0,1,302.8,244.848Z" transform="translate(-273.263 -244.801)" fill="#ee6e7a"/>
      <path id="Path_754" data-name="Path 754" d="M121.085,244.8c-.065.085-.16.055-.244.055H108.2c-.048,0-.1-.008-.145-.012a.048.048,0,0,1,.024-.045Z" transform="translate(-107.609 -244.8)" fill="#5f4887"/>
      <path id="Path_759" data-name="Path 759" d="M151.741,309.546c.09.308.242.475.595.425a.484.484,0,0,0-.215.7.491.491,0,0,0-.747,0,.464.464,0,0,0-.219-.7C151.481,310,151.684,309.9,151.741,309.546Z" transform="translate(-147.554 -304.806)" fill="#e2e3ec"/>
      <path id="Path_760" data-name="Path 760" d="M132.179,272.7c.283-.01.568-.008.56-.427.129.258.211.479.514.417.052-.011.084.078.038.1-.271.134-.234.354-.157.573a.142.142,0,0,1-.176-.04.24.24,0,0,0-.374-.007c-.046.042-.159.157-.162-.038C132.416,272.969,132.419,272.969,132.179,272.7Z" transform="translate(-129.968 -270.262)" fill="#dcdee9"/>
      <path id="Path_761" data-name="Path 761" d="M247.487,272.764c-.192.148-.374.3-.212.565.027.044-.042.106-.083.066-.211-.207-.414-.166-.652.044a.469.469,0,0,0-.222-.7c.326.012.53-.1.56-.444C247.1,272.623,247.1,272.623,247.487,272.764Z" transform="translate(-235.749 -270.282)" fill="#dcdee9"/>
      <path id="Path_762" data-name="Path 762" d="M171.948,273.151c-.2.166-.44.314-.179.654a.528.528,0,0,0-.753.017c.072-.27.105-.487-.166-.619-.047-.023-.021-.111.033-.1.3.055.394-.147.468-.385A.81.81,0,0,0,171.948,273.151Z" transform="translate(-165.785 -270.676)" fill="#dee0ea"/>
      <path id="Path_763" data-name="Path 763" d="M266.592,334.1c.055.333.26.437.571.416-.191.181-.4.318-.225.591.031.049-.042.106-.075.073-.214-.219-.418-.126-.671.084.07-.292.171-.518-.115-.643-.055-.024-.055-.135.016-.121C266.4,334.556,266.481,334.343,266.592,334.1Z" transform="translate(-254.022 -327.56)" fill="#dee0ea"/>
      <path id="Path_764" data-name="Path 764" d="M191.078,260.721c-.266.172-.378.366-.231.666-.245-.13-.468-.271-.647.023-.108-.086-.065-.151-.04-.209a.222.222,0,0,0-.1-.321c-.055-.031-.138-.063-.111-.149.023-.068.1-.06.153-.049.3.067.247-.235.413-.4C190.554,260.63,190.761,260.734,191.078,260.721Z" transform="translate(-183.506 -259.147)" fill="#dcdee9"/>
      <path id="Path_765" data-name="Path 765" d="M266.628,260.616a.407.407,0,0,0,.52.388.111.111,0,0,1-.07.161.251.251,0,0,0-.124.377c.027.055.039.215-.059.134a.4.4,0,0,0-.585.033.1.1,0,0,1-.042-.14c.083-.172.073-.314-.117-.409-.043-.021-.089-.058-.07-.111a.105.105,0,0,1,.09-.051C266.466,261.071,266.513,260.84,266.628,260.616Z" transform="translate(-254.059 -259.459)" fill="#dee0ea"/>
      <path id="Path_766" data-name="Path 766" d="M152.48,334.476c-.3.195-.346.41-.222.66a.111.111,0,0,1-.154-.011c-.136-.13-.268-.171-.419-.014-.049.052-.2.074-.147-.022.146-.287-.036-.418-.233-.6.311.019.52-.082.571-.419C152,334.33,152.074,334.6,152.48,334.476Z" transform="translate(-147.694 -327.535)" fill="#dee0ea"/>
      <path id="Path_767" data-name="Path 767" d="M171.94,346.694c-.274.179-.388.377-.219.7a.475.475,0,0,0-.728,0c.051-.261.12-.486-.166-.62-.065-.03-.014-.121.055-.111.28.051.368-.126.451-.38a.519.519,0,0,0,.606.41Z" transform="translate(-165.76 -338.855)" fill="#dee0ea"/>
      <path id="Path_768" data-name="Path 768" d="M131.391,347.763c.163-.328.017-.51-.314-.691.365-.022.639-.023.61-.374.123-.009.133.055.143.111a.257.257,0,0,0,.326.234c.072-.009.2.055.1.111-.274.153-.2.37-.125.7C131.866,347.567,131.644,347.524,131.391,347.763Z" transform="translate(-128.946 -339.236)" fill="#dcdee9"/>
      <path id="Path_769" data-name="Path 769" d="M151.465,262.177a.486.486,0,0,0-.214-.715c.312,0,.526-.08.541-.388.092,0,.111.043.123.088.038.182.118.3.333.258a.1.1,0,0,1,.127.045.071.071,0,0,1-.039.1c-.27.12-.2.327-.089.622C151.96,262.009,151.722,261.84,151.465,262.177Z" transform="translate(-147.643 -259.885)" fill="#dee0ea"/>
      <path id="Path_770" data-name="Path 770" d="M247.024,345.867c.251.375.251.375.635.45-.243.172-.4.361-.222.615-.062.055-.1.05-.131.024-.151-.143-.3-.2-.466-.018-.043.047-.177.055-.131-.034.143-.277-.016-.422-.23-.6C246.787,346.316,247,346.221,247.024,345.867Z" transform="translate(-235.897 -338.467)" fill="#dee0ea"/>
      <path id="Path_771" data-name="Path 771" d="M228.283,262.212a.444.444,0,0,0-.7,0,.486.486,0,0,0-.24-.682c.281-.047.566-.033.524-.388.131-.018.136.055.147.1a.255.255,0,0,0,.323.236c.069-.01.206.05.111.107C228.183,261.743,228.234,261.953,228.283,262.212Z" transform="translate(-218.161 -259.942)" fill="#dcdee9"/>
      <path id="Path_772" data-name="Path 772" d="M190.8,335.256a.466.466,0,0,0-.721.018c.047-.261.111-.479-.16-.61a.063.063,0,0,1,.033-.119c.29.049.383-.137.478-.388a.468.468,0,0,0,.58.407C190.8,334.759,190.588,334.92,190.8,335.256Z" transform="translate(-183.449 -327.613)" fill="#dee0ea"/>
      <path id="Path_773" data-name="Path 773" d="M228.223,335.732a.451.451,0,0,0-.69.01.495.495,0,0,0-.246-.683c.307-.01.547-.06.544-.388.116-.007.121.062.133.114.037.16.111.264.3.231.052-.009.128-.022.153.048s-.039.111-.088.131C228.059,335.319,228.237,335.528,228.223,335.732Z" transform="translate(-218.109 -328.091)" fill="#dee0ea"/>
      <path id="Path_774" data-name="Path 774" d="M210.119,272.352c.1.237.166.469.463.407.06-.013.118.082.052.111-.293.13-.19.369-.143.683-.259-.291-.479-.3-.683-.069-.1-.166.085-.322.011-.388-.277-.251-.277-.354.123-.388C210,272.7,210.046,272.5,210.119,272.352Z" transform="translate(-201.74 -270.336)" fill="#dcdee9"/>
      <path id="Path_775" data-name="Path 775" d="M114.622,335.812c-.248-.3-.468-.269-.735.017.067-.326.15-.559-.137-.692-.067-.031,0-.119.06-.106.293.06.358-.15.42-.348.1-.014.111.062.12.111.032.194.145.254.329.235.074-.008.178,0,.1.126A.721.721,0,0,0,114.622,335.812Z" transform="translate(-112.863 -328.1)" fill="#dee0ea"/>
      <path id="Path_776" data-name="Path 776" d="M208.487,347.113c.314-.007.51-.1.53-.388.089-.017.108.03.119.077.043.177.12.3.337.263.071-.012.2.05.1.111-.244.152-.227.342-.111.647-.282-.189-.51-.324-.756-.017C208.827,347.486,208.781,347.271,208.487,347.113Z" transform="translate(-200.688 -339.259)" fill="#dcdee9"/>
      <path id="Path_777" data-name="Path 777" d="M247.145,321.771c.111.282.225.493.6.4a.475.475,0,0,0-.219.7c-.261-.175-.488-.277-.721.064a.816.816,0,0,0-.229-.788C246.908,322.227,247.076,322.086,247.145,321.771Z" transform="translate(-235.989 -316.136)" fill="#e2e3ec"/>
      <path id="Path_778" data-name="Path 778" d="M152.262,285.422a.5.5,0,0,0-.2.7c-.248-.159-.478-.252-.731.024.12-.31.092-.537-.237-.7.328.014.534-.087.586-.436C151.793,285.282,151.89,285.525,152.262,285.422Z" transform="translate(-147.497 -282.068)" fill="#e2e3ec"/>
      <path id="Path_779" data-name="Path 779" d="M246.605,298.182c.222-.323.1-.51-.163-.69a.456.456,0,0,0,.572-.421c.133.243.177.558.6.375-.194.236-.448.406-.123.745A.907.907,0,0,0,246.605,298.182Z" transform="translate(-235.863 -293.244)" fill="#e3e4ec"/>
      <path id="Path_780" data-name="Path 780" d="M131.987,297.582c.375.06.52-.111.6-.415.1.287.235.467.572.409-.218.19-.373.375-.2.683-.251-.12-.481-.313-.724.052C132.312,297.988,132.361,297.731,131.987,297.582Z" transform="translate(-129.79 -293.334)" fill="#e3e4ec"/>
      <path id="Path_781" data-name="Path 781" d="M228.3,286.206a.5.5,0,0,0-.732.006.469.469,0,0,0-.225-.683c.315,0,.533-.069.573-.428.131.236.2.523.586.388C228.3,285.7,228.11,285.889,228.3,286.206Z" transform="translate(-218.161 -282.151)" fill="#e3e4ec"/>
      <path id="Path_782" data-name="Path 782" d="M208.414,296.743c.328.023.51-.1.555-.492.144.308.212.6.606.444-.192.222-.416.394-.2.721a.495.495,0,0,0-.735.013.474.474,0,0,0-.222-.686Z" transform="translate(-200.62 -292.485)" fill="#e2e3ec"/>
      <path id="Path_783" data-name="Path 783" d="M113.388,262.177a.444.444,0,0,0-.222-.663c.283-.043.555-.051.526-.395.126-.013.133.062.143.111.037.166.111.262.3.231.055-.009.129-.013.153.052s-.039.1-.088.13a.236.236,0,0,0-.111.359c.025.052.027.218-.063.138C113.8,261.934,113.619,262.044,113.388,262.177Z" transform="translate(-112.35 -259.924)" fill="#dcdee9"/>
      <path id="Path_784" data-name="Path 784" d="M170.913,321.741c.078.31.238.464.574.4-.211.2-.43.368-.178.715-.281-.217-.507-.248-.758,0,.1-.293.094-.529-.222-.688a.5.5,0,0,0,.583-.428Z" transform="translate(-165.324 -316.108)" fill="#e2e3ec"/>
      <path id="Path_785" data-name="Path 785" d="M170.39,297.919c.088-.291.115-.529-.235-.679.314-.016.566-.055.577-.46.1.322.239.51.595.42-.183.212-.45.377-.181.732a.5.5,0,0,0-.755-.013Z" transform="translate(-165.163 -292.974)" fill="#e2e3ec"/>
      <path id="Path_786" data-name="Path 786" d="M189.983,358.708a.45.45,0,0,0,.586.407c-.246.185-.384.38-.222.689-.252-.139-.473-.311-.712.047.081-.318.074-.555-.234-.71C189.716,359.139,189.92,359.051,189.983,358.708Z" transform="translate(-183.001 -350.368)" fill="#e5e6ed"/>
      <path id="Path_787" data-name="Path 787" d="M228.469,358.968a.617.617,0,0,1-.94.708c.111-.309.083-.537-.232-.69.315-.007.55-.065.576-.444C227.995,358.824,228.1,359.052,228.469,358.968Z" transform="translate(-218.121 -350.215)" fill="#e3e4ec"/>
      <path id="Path_788" data-name="Path 788" d="M208.911,321.78c.1.294.242.468.594.405a.5.5,0,0,0-.217.7c-.25-.212-.469-.252-.713,0,.078-.287.084-.53-.241-.679C208.648,322.2,208.864,322.129,208.911,321.78Z" transform="translate(-200.546 -316.144)" fill="#e3e4ec"/>
      <path id="Path_789" data-name="Path 789" d="M265.521,284.617c.367.072.488-.134.571-.489.119.339.21.592.6.461-.252.2-.409.4-.216.733a.493.493,0,0,0-.745-.011.475.475,0,0,0-.211-.7Z" transform="translate(-253.545 -281.249)" fill="#e2e3ec"/>
      <path id="Path_790" data-name="Path 790" d="M189.834,284.853c.068.379.287.448.6.444a.49.49,0,0,0-.233.691.451.451,0,0,0-.71,0c.074-.283.111-.53-.236-.674C189.551,285.276,189.83,285.267,189.834,284.853Z" transform="translate(-182.864 -281.921)" fill="#e5e6ed"/>
      <path id="Path_791" data-name="Path 791" d="M113.524,284.448c.248.408.248.408.657.481-.277.163-.4.365-.244.683a.463.463,0,0,0-.714,0c.08-.289.111-.54-.251-.677C113.3,284.921,113.517,284.857,113.524,284.448Z" transform="translate(-112.166 -281.546)" fill="#e3e4ec"/>
      <path id="Path_792" data-name="Path 792" d="M152.053,359.719a.493.493,0,0,0-.732.013c.111-.295.1-.529-.237-.682.326.01.535-.088.586-.437.116.266.209.515.586.4C152.054,359.216,151.864,359.4,152.053,359.719Z" transform="translate(-147.488 -350.28)" fill="#e5e6ed"/>
      <path id="Path_793" data-name="Path 793" d="M228.476,310.015c-.328.174-.313.41-.21.686-.247-.155-.466-.3-.715.027.081-.305.093-.549-.245-.7.315-.006.535-.092.584-.444C228,309.865,228.108,310.09,228.476,310.015Z" transform="translate(-218.128 -304.845)" fill="#e3e4ec"/>
      <path id="Path_794" data-name="Path 794" d="M265.461,310.059a.457.457,0,0,0,.572-.424c.128.253.2.545.615.393-.277.2-.388.4-.222.707-.261-.137-.49-.3-.737.041C265.79,310.46,265.777,310.226,265.461,310.059Z" transform="translate(-253.489 -304.887)" fill="#e5e6ed"/>
      <path id="Path_795" data-name="Path 795" d="M266.348,359.669a.491.491,0,0,0-.73.013c.092-.288.1-.526-.235-.687a.489.489,0,0,0,.593-.435c.079.321.231.484.583.412C266.335,359.164,266.152,359.344,266.348,359.669Z" transform="translate(-253.417 -350.229)" fill="#e2e3ec"/>
      <path id="Path_796" data-name="Path 796" d="M113.377,310.756c.111-.3.1-.529-.23-.684.315,0,.53-.093.571-.438.119.266.226.5.59.409-.218.192-.388.379-.2.7C113.849,310.545,113.62,310.5,113.377,310.756Z" transform="translate(-112.329 -304.887)" fill="#e5e6ed"/>
      <path id="Path_797" data-name="Path 797" d="M113.416,358.777c.1.306.243.478.592.393-.222.206-.419.374-.2.705-.268-.19-.5-.235-.727.017.033-.281.149-.555-.268-.677C113.139,359.191,113.377,359.136,113.416,358.777Z" transform="translate(-112.021 -350.432)" fill="#e2e3ec"/>
      <path id="Path_798" data-name="Path 798" d="M132.077,322.174a.462.462,0,0,0,.581-.425c.123.258.222.5.6.4-.277.193-.388.4-.2.713-.269-.212-.489-.258-.724,0C132.374,322.579,132.459,322.315,132.077,322.174Z" transform="translate(-129.873 -316.116)" fill="#e3e4ec"/>
      <path id="Path_799" data-name="Path 799" d="M190.277,310.95c-.247-.326-.468-.257-.708-.055.075-.281.12-.527-.226-.674.315-.009.519-.1.572-.433.117.265.222.514.627.333C190.239,310.5,190.239,310.5,190.277,310.95Z" transform="translate(-182.944 -305.028)" fill="#e3e4ec"/>
    </g>
  </g>
</svg>
