<?xml version="1.0" encoding="UTF-8"?>
<!DOCTYPE svg PUBLIC "-//W3C//DTD SVG 1.1//EN" "http://www.w3.org/Graphics/SVG/1.1/DTD/svg11.dtd">
<!-- Creator: CorelDRAW X7 -->
<svg xmlns="http://www.w3.org/2000/svg" xml:space="preserve" width="100%" height="100%" version="1.1" style="shape-rendering:geometricPrecision; text-rendering:geometricPrecision; image-rendering:optimizeQuality; fill-rule:evenodd; clip-rule:evenodd"
viewBox="0 0 11000 8500"
 xmlns:xlink="http://www.w3.org/1999/xlink">
 <defs>
  <style type="text/css">
   <![CDATA[
    .str0 {stroke:#006CB3;stroke-width:196.85}
    .fil1 {fill:#006CB3}
    .fil0 {fill:#24A8E0}
   ]]>
  </style>
 </defs>
 <g id="Layer_x0020_1">
  <metadata id="CorelCorpID_0Corel-Layer"/>
  <path class="fil0 str0" d="M4220 4243c283,0 512,229 512,512 0,92 -24,177 -66,252l-893 0c-42,-75 -65,-160 -65,-252 0,-283 229,-512 512,-512z"/>
  <rect class="fil0" x="3142" y="1414" width="4566" height="967" rx="233" ry="233"/>
  <g id="_740102440">
  </g>
  <g id="_740101384">
  </g>
  <g id="_740101816">
  </g>
  <g id="_740101888">
  </g>
  <g id="_740101696">
  </g>
  <g id="_740100904">
  </g>
  <g id="_740101000">
  </g>
  <g id="_740101288">
  </g>
  <g id="_740100664">
  </g>
  <g id="_740100160">
  </g>
  <g id="_740100304">
  </g>
  <g id="_740099944">
  </g>
  <g id="_740099992">
  </g>
  <g id="_740099608">
  </g>
  <g id="_740099056">
  </g>
  <g id="_740099488">
  </g>
  <g id="_740099200">
  </g>
  <g id="_740098696">
  </g>
  <g id="_740098792">
  </g>
  <g id="_740098336">
  </g>
  <g id="_740098048">
  </g>
  <g id="_740097664">
  </g>
  <g id="_740097904">
  </g>
  <g id="_740097568">
  </g>
  <g id="_740096776">
  </g>
  <g id="_740097424">
  </g>
  <g id="_740097280">
  </g>
  <g id="_740097088">
  </g>
  <g id="_740096320">
  </g>
  <g id="_740096656">
  </g>
  <g id="_740095264">
   <g>
    <g>
     <path class="fil1" d="M7220 1233l-3634 0c-333,0 -605,272 -605,605l0 4361c0,187 103,345 248,454 0,6 -6,18 -6,30l0 424c0,236 188,424 424,424l121 0c236,0 424,-188 424,-424l0 -303 2422 0 0 303c0,236 188,424 424,424l121 0c237,0 424,-188 424,-424l0 -424c146,-109 243,-284 243,-484l0 -4361c0,-333 -273,-605 -606,-605zm-3270 5874c0,103 -79,182 -182,182l-121 0c-103,0 -182,-79 -182,-182l0 -333c61,18 121,30 182,30l303 0 0 303zm3391 0c0,103 -79,182 -182,182l-121 0c-103,0 -181,-79 -181,-182l0 -303 363 0c42,0 85,-6 121,-12l0 315zm242 -908c0,200 -163,363 -363,363l-3573 0c-194,0 -424,-163 -424,-363l0 -1090 4360 0 0 1090zm0 -1333l-4360 0 0 -2422 4360 0 0 2422zm0 -2664l-4360 0 0 -364c0,-200 164,-363 363,-363l3634 0c200,0 363,163 363,363l0 364z"/>
     <path class="fil1" d="M5161 1717l-787 0c-67,0 -121,55 -121,121 0,67 54,121 121,121l787 0c67,0 121,-54 121,-121 0,-66 -54,-121 -121,-121z"/>
     <path class="fil1" d="M5888 1717l-182 0c-67,0 -121,55 -121,121 0,67 54,121 121,121l182 0c66,0 121,-54 121,-121 0,-66 -55,-121 -121,-121z"/>
     <path class="fil1" d="M3889 6138c200,0 364,-163 364,-363 0,-200 -164,-364 -364,-364 -200,0 -363,164 -363,364 0,200 163,363 363,363zm0 -484c67,0 121,54 121,121 0,66 -54,121 -121,121 -66,0 -121,-55 -121,-121 0,-67 55,-121 121,-121z"/>
     <path class="fil1" d="M6917 6138c200,0 364,-163 364,-363 0,-200 -164,-364 -364,-364 -200,0 -363,164 -363,364 0,200 163,363 363,363zm0 -484c67,0 121,54 121,121 0,66 -54,121 -121,121 -66,0 -121,-55 -121,-121 0,-67 55,-121 121,-121z"/>
    </g>
   </g>
  </g>
 </g>
</svg>
