<?xml version="1.0" encoding="UTF-8"?>
<!DOCTYPE svg PUBLIC "-//W3C//DTD SVG 1.1//EN" "http://www.w3.org/Graphics/SVG/1.1/DTD/svg11.dtd">
<!-- Creator: CorelDRAW X7 -->
<svg xmlns="http://www.w3.org/2000/svg" xml:space="preserve" width="100%" height="100%" version="1.1" style="shape-rendering:geometricPrecision; text-rendering:geometricPrecision; image-rendering:optimizeQuality; fill-rule:evenodd; clip-rule:evenodd"
viewBox="0 0 11000 8500"
 xmlns:xlink="http://www.w3.org/1999/xlink">
 <defs>
  <style type="text/css">
   <![CDATA[
    .str0 {stroke:#006CB3;stroke-width:275.591}
    .fil2 {fill:none}
    .fil1 {fill:#006CB3}
    .fil0 {fill:#24A8E0}
   ]]>
  </style>
 </defs>
 <g id="Layer_x0020_1">
  <metadata id="CorelCorpID_0Corel-Layer"/>
  <path class="fil0" d="M3234 3391c0,0 183,-1071 464,-1123 282,-51 3357,-25 3357,-25 0,0 466,391 551,884 85,493 -1713,410 -1713,410l-2659 -146z"/>
  <g id="_1000862976">
   <g>
    <path class="fil1" d="M2206 3430l0 -327 701 0c234,420 421,607 935,607l1552 0 0 -264c-421,-6 -815,-16 -1085,-16 -514,0 -514,0 -981,-141 0,-140 234,-888 561,-934l1505 0 0 -281 -851 0 187 -467 664 0 0 -281 -851 0c-140,234 -187,515 -327,748 -327,0 -561,0 -748,187 -93,140 -280,468 -327,655 -234,-94 -421,-47 -795,-47 -420,0 -467,140 -420,561 46,374 374,280 654,374 -47,233 -187,187 -187,747 0,1262 94,748 140,1169 47,234 -46,561 94,701l654 0 888 0c0,-280 0,-140 0,-421 -374,-46 -140,141 -420,141l-935 0 0 -328 2580 24 0 -257 -10 0c-2897,0 -2757,280 -2757,-935 0,-654 280,-608 280,-982l-46 -46c-234,-94 -515,-141 -655,-187z"/>
    <polyline class="fil2 str0" points="3227,4195 3451,4382 4092,4382 "/>
   </g>
   <g>
    <path class="fil1" d="M8575 3430l0 -327 -702 0c-233,420 -420,607 -934,607l-1552 0 0 -264c420,-6 814,-16 1084,-16 514,0 514,0 982,-141 0,-140 -234,-888 -561,-934l-1505 0 0 -281 851 0 -187 -467 -664 0 0 -281 851 0c140,234 187,515 327,748 327,0 561,0 748,187 93,140 280,468 327,655 233,-94 420,-47 794,-47 421,0 468,140 421,561 -47,374 -374,280 -654,374 46,233 187,187 187,747 0,1262 -94,748 -141,1169 -46,234 47,561 -93,701l-654 0 -889 0c0,-280 0,-140 0,-421 374,-46 141,141 421,141l935 0 0 -328 -2580 24 0 -257 9 0c2898,0 2758,280 2758,-935 0,-654 -281,-608 -281,-982l47 -46c234,-94 514,-141 655,-187z"/>
    <polyline class="fil2 str0" points="7553,4195 7329,4382 6689,4382 "/>
   </g>
  </g>
  <line class="fil2 str0" x1="3933" y1="5078" x2="6787" y2= "5078" />
 </g>
</svg>
