<svg xmlns="http://www.w3.org/2000/svg" width="41.539" height="18" viewBox="0 0 41.539 18">
  <g id="Group_1" data-name="Group 1" transform="translate(3181 196)">
    <path id="Path_65" data-name="Path 65" d="M57.381,152.253a.692.692,0,0,0-.535-.253H52a.692.692,0,0,0-.619.383l-3.27,6.54H29.154a3.465,3.465,0,0,0-3.462,3.462v.692a.691.691,0,0,0-.2.031l-8.023,2.468A2.068,2.068,0,0,0,16,167.561v.362A2.079,2.079,0,0,0,18.077,170H47.846a.691.691,0,0,0,.286-.062l7.615-3.462a.692.692,0,0,0,.406-.63v-2.035a2.08,2.08,0,0,0,1.385-1.956v-.325a2.08,2.08,0,0,0-1.364-1.949l1.351-6.753A.692.692,0,0,0,57.381,152.253Zm-4.954,1.131H56l-.277,1.385H51.735Zm-1.385,2.769h4.4l-.64,3.2-3.414-.427a.681.681,0,0,0-.086,0H49.658Zm-19.812,4.154h5.538V161a2.079,2.079,0,0,1-2.077,2.077H31.231Zm-4.154,2.077a2.079,2.079,0,0,1,2.077-2.077h.692v2.769H27.077Zm-5.538,6.231H18.077a.693.693,0,0,1-.692-.692v-.362a.69.69,0,0,1,.488-.662l3.666-1.128Zm16.385,0H35.384a.692.692,0,1,1,0-1.385h4.385Zm2.308,0,3.692-2.769h2.629l-1.846,2.769ZM54.769,165.4,47.7,168.615H46.37l2.052-3.077a.692.692,0,0,0-.576-1.076H43.692a.692.692,0,0,0-.415.138l-1.662,1.246H35.384a2.076,2.076,0,0,0-1.958,2.769h-10.5v-3.27l2.873-.884h8.9A3.465,3.465,0,0,0,38.154,161v-.692H50.615v3.462a.692.692,0,0,0,.778.687l3.376-.422Zm1.385-3.546a.693.693,0,0,1-.606.687L52,162.985V160.4l3.547.444a.693.693,0,0,1,.606.687Z" transform="translate(-3197 -348)" fill="#006cb3"/>
    <path id="Path_66" data-name="Path 66" d="M288,264h1.385v1.385H288Z" transform="translate(-3445.462 -450.308)" fill="#23A8E0"/>
    <path id="Path_67" data-name="Path 67" d="M320,264h1.385v1.385H320Z" transform="translate(-3474.692 -450.308)" fill="#23A8E0"/>
    <path id="Path_68" data-name="Path 68" d="M352,264h1.385v1.385H352Z" transform="translate(-3503.923 -450.308)" fill="#23A8E0"/>
    <path id="Path_69" data-name="Path 69" d="M384,264h1.385v1.385H384Z" transform="translate(-3533.154 -450.308)" fill="#23A8E0"/>
    <path id="Path_70" data-name="Path 70" d="M-2898.536-35.976l-3.774,2.831h4.8l1.639-2.831Z" transform="translate(-254.573 -146.175)" fill="#23A8E0"/>
    <path id="Path_71" data-name="Path 71" d="M-3162.394-37.135l-3.812,1.142a.987.987,0,0,0,.183,1.782c-.024.048,3.63-.033,3.63-.033Z" transform="translate(-13.054 -145.117)" fill="#23A8E0"/>
  </g>
</svg>
