<?xml version="1.0" encoding="utf-8"?>
<!-- Generator: Adobe Illustrator 24.0.2, SVG Export Plug-In . SVG Version: 6.00 Build 0)  -->
<svg version="1.1" id="Layer_1" xmlns="http://www.w3.org/2000/svg" xmlns:xlink="http://www.w3.org/1999/xlink" x="0px" y="0px"
	 viewBox="0 0 977 726" style="enable-background:new 0 0 977 726;" xml:space="preserve">
<style type="text/css">
	.st0{fill-rule:evenodd;clip-rule:evenodd;fill:#097CB4;}
	.st1{fill-rule:evenodd;clip-rule:evenodd;fill:#0EB7E1;}
</style>
<path class="st0" d="M58.7,542.1C183.2,284,522.7,481.7,711.3,309.6C523.4,511.2,151.9,340.6,58.7,542.1L58.7,542.1z"/>
<path class="st1" d="M498.4,154l440.7,37.9c21.5,1.4,18,5.7,7.3,16L731.4,424.2c-12.1,13.8-14.9,9.9-29.3-6.3l-83.9-97.9
	c-11.1-12.1-12.9-14.5,6.2-21.8l209-69l-235.3,43c-17.8,3.8-15.4,6.5-28-11.7l-78.3-92.2C482.3,157,483,151.6,498.4,154L498.4,154z"
	/>
<path class="st0" d="M625.1,314.3l22.7,25.2c11,12.2,8.2,12.7-4.5,20.6L570.5,395c-8.5,5.5-14,0.9-8.1-9.2l46-76
	C613,300.5,617.9,305.4,625.1,314.3L625.1,314.3z"/>
</svg>
