<svg xmlns="http://www.w3.org/2000/svg" width="23.988" height="21.004" viewBox="0 0 23.988 21.004">
  <g id="fli-hot" transform="translate(1532.296 -2277)">
    <path id="Path_371" data-name="Path 371" d="M184.8,181.475h4.087a.368.368,0,0,0,0-.736H184.8a.368.368,0,0,0,0,.736Z" transform="translate(-1698.965 2107.7)" fill="#24a8e0"/>
    <path id="Path_372" data-name="Path 372" d="M184.8,205.463h4.087a.368.368,0,1,0,0-.736H184.8a.368.368,0,1,0,0,.736Z" transform="translate(-1698.965 2085.592)" fill="#24a8e0"/>
    <path id="Path_373" data-name="Path 373" d="M184.8,229.452h4.087a.368.368,0,1,0,0-.736H184.8a.368.368,0,1,0,0,.736Z" transform="translate(-1698.965 2063.483)" fill="#24a8e0"/>
    <path id="Path_374" data-name="Path 374" d="M184.8,157.486h4.087a.368.368,0,0,0,0-.736H184.8a.368.368,0,1,0,0,.736Z" transform="translate(-1698.965 2129.809)" fill="#24a8e0"/>
    <path id="Path_375" data-name="Path 375" d="M269.285,228.93h1.757a.368.368,0,1,0,0-.736h-1.757a.368.368,0,1,0,0,.736Z" transform="translate(-1787.738 2064.526)" fill="#24a8e0"/>
    <path id="Path_376" data-name="Path 376" d="M269.285,248.747h1.757a.368.368,0,1,0,0-.736h-1.757a.368.368,0,1,0,0,.736Z" transform="translate(-1787.738 2043.59)" fill="#24a8e0"/>
    <path id="Path_377" data-name="Path 377" d="M269.285,270.128h1.757a.368.368,0,0,0,0-.736h-1.757a.368.368,0,1,0,0,.736Z" transform="translate(-1787.738 2024.446)" fill="#24a8e0"/>
    <path id="Path_378" data-name="Path 378" d="M269.285,207.549h1.757a.368.368,0,1,0,0-.736h-1.757a.368.368,0,1,0,0,.736Z" transform="translate(-1787.738 2083.67)" fill="#24a8e0"/>
    <path id="Path_379" data-name="Path 379" d="M166.989,102.5h.45v-.777a.368.368,0,0,1,.368-.368h.664v-.333a.368.368,0,1,1,.736,0v.333h.683a.368.368,0,0,1,.368.368v.777h.456V98.739a.368.368,0,0,1,.368-.368h.836V97.354a.368.368,0,0,1,.368-.368h1.908v-1.4a.368.368,0,1,1,.736,0v1.4h1.827a.368.368,0,0,1,.368.368v1.017h.836a.368.368,0,0,1,.368.368v12.376a.368.368,0,0,1-.368.368h-10.97a.368.368,0,0,1-.368-.368v-8.251a.368.368,0,0,1,.366-.364Zm9.4-4.774h-3.735v.649h3.735Zm-2.875,13.025h.68v-2h-.68Zm1.416,0h.6v-2h-.6Zm-3.479,0h1.328V108.38a.368.368,0,0,1,.368-.368H175.9a.368.368,0,0,1,.368.368v2.371H177.6V99.107h-6.142Zm-1.927-8.659h-1.347v.409h1.347Zm-2.165,8.659h3.356v-7.515h-3.356Z" transform="translate(-1686.637 2186.521)" fill="#006cb3"/>
    <path id="Path_384" data-name="Path 384" d="M4.13,48.534a3.579,3.579,0,0,1-.93-.123,3.537,3.537,0,0,1-2.161-1.66L.092,45.122a.682.682,0,1,1,1.179-.686l.949,1.63a2.2,2.2,0,0,0,3,.808l10.76-6.2a.25.25,0,0,0,.119-.208A.234.234,0,0,0,16,40.258a1.794,1.794,0,0,0-2.063-.116L11.45,41.614a.682.682,0,0,1-.758-.042l-3.46-2.6a2.979,2.979,0,0,0-1.412-.6.337.337,0,0,0-.315.162.3.3,0,0,0-.021.288l2.231,2.762a.679.679,0,0,1,.06.088A1.713,1.713,0,0,1,7.151,44L4.269,45.7a.682.682,0,1,1-.694-1.175l2.885-1.7h.006a.349.349,0,0,0,.146-.441L4.381,39.621a.684.684,0,0,1-.06-.088,1.658,1.658,0,0,1,.021-1.717A1.709,1.709,0,0,1,5.89,37a4.218,4.218,0,0,1,2.125.845l.025.018,3.108,2.34,2.1-1.244h.007a3.139,3.139,0,0,1,3.532.18,1.621,1.621,0,0,1-.128,2.715L5.9,48.056a3.54,3.54,0,0,1-1.772.477Z" transform="translate(-1532.295 2240.002)" fill="#006cb3"/>
  </g>
</svg>
