<?xml version="1.0" encoding="UTF-8"?>
<!DOCTYPE svg PUBLIC "-//W3C//DTD SVG 1.1//EN" "http://www.w3.org/Graphics/SVG/1.1/DTD/svg11.dtd">
<!-- Creator: CorelDRAW X7 -->
<svg xmlns="http://www.w3.org/2000/svg" xml:space="preserve" width="100%" height="100%" version="1.1" style="shape-rendering:geometricPrecision; text-rendering:geometricPrecision; image-rendering:optimizeQuality; fill-rule:evenodd; clip-rule:evenodd"
viewBox="0 0 11000 8500"
 xmlns:xlink="http://www.w3.org/1999/xlink">
 <defs>
  <style type="text/css">
   <![CDATA[
    .fil1 {fill:#FEFEFE}
    .fil0 {fill:#006CB3}
    .fil2 {fill:#24A8E0}
   ]]>
  </style>
 </defs>
 <g id="Layer_x0020_1">
  <metadata id="CorelCorpID_0Corel-Layer"/>
  <path class="fil0" d="M9366 2922l-41 -87c-77,-164 -210,-284 -385,-346 -292,-105 -688,-43 -1144,177 -2,1 -4,2 -7,3l-1759 970 -1703 -918c-40,-22 -87,-23 -128,-4l-755 352c-45,21 -76,64 -82,114 -5,50 16,99 56,129l1347 1024 -1156 638 -602 -325c-39,-21 -87,-23 -128,-4l-515 240c-45,21 -76,65 -81,114 -6,50 15,99 55,129l1096 833c104,79 228,119 353,119 83,0 167,-18 246,-54l563 -263 4479 -2141c134,-63 239,-163 294,-283 62,-132 60,-280 -3,-417z"/>
  <path class="fil1" d="M8953 3364l-4479 2141 -562 262c-100,47 -217,34 -305,-33l-908 -690 236 -110 607 328c43,23 95,23 137,-1l1335 -736 321 244c25,19 55,29 86,29 20,0 41,-4 60,-13l1176 -549c49,-22 81,-71 83,-125 1,-54 -28,-104 -75,-130l-336 -181 1595 -879c362,-174 677,-235 891,-172l-526 263c-70,35 -99,121 -64,191 25,50 76,79 128,79 21,0 43,-5 64,-15l644 -322c2,4 4,7 5,11l41 87c70,151 -38,267 -154,321z"/>
  <path class="fil2" d="M3779 3228l476 -222 2024 1092 -405 189 -496 -366c-64,-46 -153,-33 -200,31 -46,63 -33,153 31,199l370 273 -140 66 -1660 -1262z"/>
  <g id="_789596736">
  </g>
  <g id="_789595944">
  </g>
  <g id="_789596112">
  </g>
  <g id="_789596304">
  </g>
  <g id="_789596160">
  </g>
  <g id="_789595416">
  </g>
  <g id="_789594408">
  </g>
  <g id="_789594264">
  </g>
  <g id="_789593304">
  </g>
  <g id="_789593424">
  </g>
  <g id="_789592680">
  </g>
  <g id="_789592872">
  </g>
  <g id="_789593088">
  </g>
  <g id="_789592536">
  </g>
  <g id="_789591936">
  </g>
 </g>
</svg>
