<?xml version="1.0" encoding="UTF-8"?>
<!DOCTYPE svg PUBLIC "-//W3C//DTD SVG 1.1//EN" "http://www.w3.org/Graphics/SVG/1.1/DTD/svg11.dtd">
<!-- Creator: CorelDRAW X7 -->
<svg xmlns="http://www.w3.org/2000/svg" xml:space="preserve" width="279.4mm" height="215.9mm" version="1.1" style="shape-rendering:geometricPrecision; text-rendering:geometricPrecision; image-rendering:optimizeQuality; fill-rule:evenodd; clip-rule:evenodd"
viewBox="0 0 27940 21590"
 xmlns:xlink="http://www.w3.org/1999/xlink">
 <defs>
  <style type="text/css">
   <![CDATA[
    .fil0 {fill:#006CB3}
    .fil1 {fill:#24A8E0}
   ]]>
  </style>
 </defs>
 <g id="Layer_x0020_1">
  <metadata id="CorelCorpID_0Corel-Layer"/>
  <g id="_317352672">
   <path class="fil0" d="M25310 1125c-22635,0 -22635,0 -22635,0 -1327,0 -2414,1086 -2414,2413 0,14482 0,14482 0,14482 0,1328 1087,2414 2414,2414 22635,0 22635,0 22635,0 1327,0 2413,-1086 2413,-2414 0,-14482 0,-14482 0,-14482 0,-1327 -1086,-2413 -2413,-2413l0 0zm804 2413c0,4023 0,4023 0,4023 -11505,0 -11505,0 -11505,0 -523,-1569 -2400,-2226 -3795,-1301 -898,604 -898,604 -898,604 0,-4130 0,-4130 0,-4130 15394,0 15394,0 15394,0 442,0 804,362 804,804l0 0zm-19604 5592c-603,402 -1421,-27 -1421,-764 0,-738 818,-1167 1421,-765 1153,765 1153,765 1153,765l-1153 764zm4050 -764c1153,-765 1153,-765 1153,-765 603,-402 1421,27 1421,765 0,737 -818,1166 -1421,764l-1153 -764zm-7885 -5632c5632,0 5632,0 5632,0 0,4130 0,4130 0,4130 -898,-604 -898,-604 -898,-604 -1395,-925 -3272,-268 -3795,1301 -1743,0 -1743,0 -1743,0 0,-4023 0,-4023 0,-4023 0,-442 362,-804 804,-804l0 0zm-804 15286c0,-8850 0,-8850 0,-8850 1743,0 1743,0 1743,0 402,1194 1636,1918 2883,1676 -1274,1904 -1274,1904 -1274,1904 -242,362 -148,872 228,1113 362,242 871,148 1113,-228 1743,-2614 1743,-2614 1743,-2614 0,7804 0,7804 0,7804 -5632,0 -5632,0 -5632,0 -442,0 -804,-362 -804,-805l0 0zm23439 805c-15394,0 -15394,0 -15394,0 0,-7804 0,-7804 0,-7804 1743,2614 1743,2614 1743,2614 242,376 751,470 1113,228 376,-241 470,-751 228,-1113 -1274,-1904 -1274,-1904 -1274,-1904 1247,242 2481,-469 2883,-1676 11505,0 11505,0 11505,0 0,8850 0,8850 0,8850 0,443 -362,805 -804,805l0 0z"/>
   <rect class="fil1" x="15491" y="13366" width="8446" height="1471" rx="845" ry="736"/>
   <rect class="fil1" x="15491" y="15618" width="8446" height="1471" rx="845" ry="736"/>
   <rect class="fil1" x="15491" y="11115" width="8446" height="1471" rx="845" ry="736"/>
  </g>
 </g>
</svg>
