<svg xmlns="http://www.w3.org/2000/svg" width="100%" height="100%" viewBox="0 0 77.635 77.635">
  <g id="Group_314" data-name="Group 314" transform="translate(-304 -654.365)">
    <path id="Path_687" data-name="Path 687" d="M305.049,732.146l5.47-7.341,5.758-1.583H371.7l3.311,3.455,2.879,5.47v1.871H305.049Z" transform="translate(0.541 -4.523)" fill="#24a8e0"/>
    <g id="sunbed" transform="translate(304 654.365)">
      <path id="Path_643" data-name="Path 643" d="M63.988,70h-.049l-2.616-4.549h7.213V60.9H42.228L36.067,50.635l-3.9,2.34,7.486,12.476h4.076L40.582,70H20.317l8.141-29.893L53.021,46.69l.589-2.2A27.293,27.293,0,1,0,.883,30.365l-.589,2.2,23.77,6.369L15.6,70H13.647A13.662,13.662,0,0,0,0,83.647v2.578H77.635V83.647A13.662,13.662,0,0,0,63.988,70ZM19.093,32.889C22.507,22,28.454,15.356,32.332,15.356c3.071,0,4.514,4.414,5.017,7.439a39.871,39.871,0,0,1-.772,14.779Zm30.6,8.2-8.726-2.338c1.367-6.039,1.942-13.31.313-19.232A22.763,22.763,0,0,1,49.7,41.09ZM24.032,14.906c-4.363,4.326-7.5,10.915-9.334,16.806L5.975,29.375A22.794,22.794,0,0,1,24.032,14.906ZM49.259,65.452h6.817L58.692,70H46.113ZM4.764,81.676a9.114,9.114,0,0,1,8.883-7.127H63.988a9.114,9.114,0,0,1,8.883,7.127Z" transform="translate(0 -8.59)" fill="#0067ac"/>
      <path id="Path_644" data-name="Path 644" d="M401.1,18.2A9.1,9.1,0,1,0,392,9.1,9.108,9.108,0,0,0,401.1,18.2Zm0-13.647A4.549,4.549,0,1,1,396.549,9.1,4.554,4.554,0,0,1,401.1,4.549Z" transform="translate(-332.561)" fill="#0067ac"/>
    </g>
  </g>
</svg>
