<?xml version="1.0" encoding="UTF-8"?>
<!DOCTYPE svg PUBLIC "-//W3C//DTD SVG 1.1//EN" "http://www.w3.org/Graphics/SVG/1.1/DTD/svg11.dtd">
<!-- Creator: CorelDRAW X7 -->
<svg xmlns="http://www.w3.org/2000/svg" xml:space="preserve" width="100%" height="100%" version="1.1" style="shape-rendering:geometricPrecision; text-rendering:geometricPrecision; image-rendering:optimizeQuality; fill-rule:evenodd; clip-rule:evenodd"
viewBox="0 0 11000 8500"
 xmlns:xlink="http://www.w3.org/1999/xlink">
 <defs>
  <style type="text/css">
   <![CDATA[
    .fil0 {fill:#006CB3}
    .fil1 {fill:#24A8E0}
   ]]>
  </style>
 </defs>
 <g id="Layer_x0020_1">
  <metadata id="CorelCorpID_0Corel-Layer"/>
  <path class="fil0" d="M5300 6197l-1128 0c-44,0 -94,-51 -94,-94l0 -2445c0,-44 50,-94 94,-94l1128 0c73,0 116,38 150,76 63,69 40,93 76,168l226 0c27,-118 77,-244 225,-244 385,0 2426,-29 2633,19 22,45 38,82 38,150l0 2313c0,87 -42,151 -132,151l-2539 0c-153,0 -200,-135 -225,-245l-226 0c-15,32 -48,245 -226,245zm-1128 244l1147 0c76,0 120,-22 177,-49 84,-42 80,-60 143,-101 93,62 153,150 320,150l2576 0c245,0 357,-200 357,-451l0 -2219c0,-251 -112,-451 -357,-451l-2576 0c-167,0 -227,88 -320,150 -58,-39 -59,-58 -131,-95 -52,-27 -108,-55 -189,-55l-1147 0c-176,0 -338,162 -338,338l0 2445c0,176 162,338 338,338z"/>
  <path class="fil0" d="M3458 5238l131 0 0 -245c-124,0 -244,30 -244,-132l0 -2331c0,-68 16,-105 37,-151 185,-43 959,-18 1204,-18 114,0 198,118 207,225l244 0c3,-118 95,-225 207,-225l2576 0c44,0 94,50 94,94l0 620 245 0 0 -620c0,-177 -162,-339 -339,-339l-2576 0c-157,0 -247,89 -338,151 -81,-71 -171,-151 -320,-151l-1128 0c-246,0 -358,200 -358,451l0 2219c0,251 112,452 358,452z"/>
  <polygon class="fil1" points="8159,4279 8159,4034 6241,4034 6241,4279 "/>
  <polygon class="fil1" points="8159,5726 8159,5482 6241,5482 6241,5726 "/>
  <polygon class="fil1" points="8159,4767 8159,4523 6241,4523 6241,4767 "/>
  <polygon class="fil1" points="8159,5238 8159,4993 6241,4993 6241,5238 "/>
  <polygon class="fil0" points="5037,3075 5037,2831 4793,2831 4793,3075 "/>
  <polygon class="fil0" points="5752,4279 5752,4034 5507,4034 5507,4279 "/>
  <polygon class="fil0" points="5752,5726 5752,5482 5507,5482 5507,5726 "/>
  <polygon class="fil0" points="5752,5238 5752,4993 5507,4993 5507,5238 "/>
  <polygon class="fil0" points="5752,4767 5752,4523 5507,4523 5507,4767 "/>
  <rect class="fil1" transform="matrix(3.05311E-014 -1.15698 1.09258 2.88658E-014 4449.66 5908.42)" width="1792" height="563"/>
 </g>
</svg>
