<svg xmlns="http://www.w3.org/2000/svg" width="245.396" height="360.611" viewBox="0 0 245.396 360.611">
  <g id="Group_1" data-name="Group 1" transform="translate(-75.42 -307.078)">
    <path id="Path_2" data-name="Path 2" d="M537.567,83.646c55.744-.26,103.415,41.983,109.82,97.084,2.681,23.067-2.141,44.987-9.526,66.528-12.715,37.089-31.379,71.259-52.594,104.013-13.3,20.533-27.743,40.329-41.8,60.363-4.03,5.742-7.357,5.649-11.336.061-31.411-44.12-60.477-89.653-83.068-139.032-9.053-19.788-17.216-40-20.162-61.712-6.256-46.1,10.312-82.558,48.264-109.07C495.145,89.318,515.635,83.777,537.567,83.646Zm-.012,318.261c1.013-1.268,1.488-1.824,1.922-2.41a820.183,820.183,0,0,0,55.5-84.9c15.011-26.551,28.447-53.827,36.869-83.3,5.345-18.708,8.214-37.721,3.838-56.955-8.693-38.2-31.668-64.41-69.167-75.714-37.177-11.207-70.9-2.636-98.82,24.491-22.956,22.3-32.552,50.082-29.076,82.035,1.947,17.9,8.009,34.71,14.849,51.226,14.329,34.6,32.976,66.9,52.967,98.45C516.387,370.518,526.915,385.846,537.555,401.907Z" transform="translate(-339.638 223.434)" fill="#fff"/>
    <path id="Path_3" data-name="Path 3" d="M529.873,444.254c-22.31-.246-52.466-2.1-81.85-10.11-7.627-2.078-14.872-5.655-22.144-8.877a21.349,21.349,0,0,1-6.185-4.777c-6.04-6.166-6.364-14.193.126-19.841a60.121,60.121,0,0,1,15.834-9.657c12.945-5.495,26.792-7.82,40.631-9.9,3.547-.535,6.2,1.47,6.559,4.557.331,2.874-1.682,5.077-5.1,5.853-11.906,2.706-23.879,5.176-35.658,8.36-4.592,1.242-8.976,3.773-13.021,6.388-4.576,2.958-4.621,6.308.2,8.862a107.209,107.209,0,0,0,20.236,8.537c29.324,8.438,59.492,10.161,89.8,10.129,27.295-.029,54.448-1.867,81.036-8.528,6.864-1.719,13.493-4.4,20.188-6.765a23.452,23.452,0,0,0,4.616-2.461c6.046-3.835,6.172-6.986-.069-10.676-4.263-2.52-8.822-4.975-13.573-6.153-12.813-3.178-25.8-5.661-38.72-8.4-.73-.155-1.5-.117-2.231-.267-3.482-.711-5.243-2.878-4.887-5.958.35-3.028,2.623-4.96,6.228-4.346,11.677,1.99,23.432,3.763,34.905,6.63,7.542,1.885,14.789,5.212,21.887,8.5a26.348,26.348,0,0,1,8.341,6.774c4.532,5.238,4.675,12.09-.166,17a47.563,47.563,0,0,1-12.654,9.049c-12.778,6.3-26.69,8.974-40.634,11.2C581.812,442.844,559.886,444.306,529.873,444.254Z" transform="translate(-339.638 223.434)" fill="#fff"/>
    <path id="Path_5" data-name="Path 5" d="M537.77,257.56c-35.408-.23-63.9-28.8-63.557-63.732a63.7,63.7,0,0,1,64.453-63.268c34.556.33,62.817,29.2,62.636,63.976C601.12,229.215,572.32,257.786,537.77,257.56Zm-.166-10.5c28.8.3,52.828-23.361,53.194-52.365.367-29.035-23.342-53.328-52.345-53.633a53.19,53.19,0,0,0-53.74,52.606C484.375,222.865,508.041,246.755,537.6,247.059Z" transform="translate(-339.638 223.434)" fill="#fff"/>
  </g>
</svg>
