<svg xmlns="http://www.w3.org/2000/svg" width="100%" height="100%" viewBox="0 0 17.631 22.939">
  <g id="Group_306" data-name="Group 306" transform="translate(-21.608 -605.606)">
    <g id="Group_304" data-name="Group 304">
      <path id="Path_317" data-name="Path 317" d="M69.747,101.606H66.081l-.1-.18a2.309,2.309,0,0,1-.28-1.1,2.224,2.224,0,0,1,4.448,0,2.369,2.369,0,0,1-.28,1.1Zm-3.246-.721h2.8a1.329,1.329,0,0,0,.1-.561,1.5,1.5,0,0,0-3.005,0A1.738,1.738,0,0,0,66.5,100.885Z" transform="translate(-41.788 518.124)" fill="#9f9a9a"/>
      <g id="Group_303" data-name="Group 303">
        <path id="Path_316" data-name="Path 316" d="M69.263,99.9a1.873,1.873,0,0,1,1.863,1.863,1.807,1.807,0,0,1-.24.922H67.64a1.808,1.808,0,0,1-.24-.922A1.86,1.86,0,0,1,69.263,99.9Z" transform="translate(-43.148 516.685)" fill="#fff" fill-rule="evenodd"/>
        <path id="Path_319" data-name="Path 319" d="M69.647,45.1H56.4a2.2,2.2,0,0,0-2.2,2.2V63.191a2.127,2.127,0,0,0,.9,1.663.868.868,0,0,0-.02.1V66.5a1.531,1.531,0,0,0,1.543,1.543h.441A1.531,1.531,0,0,0,58.608,66.5v-1.1h8.815v1.1a1.531,1.531,0,0,0,1.543,1.543h.441A1.531,1.531,0,0,0,70.949,66.5V64.954a2.182,2.182,0,0,0,.882-1.763V47.3A2.193,2.193,0,0,0,69.647,45.1ZM57.726,66.5a.642.642,0,0,1-.661.661h-.441a.642.642,0,0,1-.661-.661V65.275a2.519,2.519,0,0,0,.661.1h1.1Zm12.361,0a.642.642,0,0,1-.661.661h-.441a.642.642,0,0,1-.661-.661v-1.1h1.322a3,3,0,0,0,.441-.04Zm.882-3.306a1.334,1.334,0,0,1-1.322,1.322H56.624a1.558,1.558,0,0,1-1.543-1.322V59.224H70.969Zm0-4.848H55.082V49.528H70.969Zm0-9.7H55.082V47.324A1.334,1.334,0,0,1,56.4,46H69.647a1.334,1.334,0,0,1,1.322,1.322Z" transform="translate(-32.592 560.506)" fill="#9f9a9a" fill-rule="evenodd"/>
      </g>
    </g>
    <path id="Path_320" data-name="Path 320" d="M80.606,53.9H77.741a.441.441,0,0,0,0,.882h2.865a.445.445,0,0,0,.441-.441A.432.432,0,0,0,80.606,53.9Z" transform="translate(-51.064 553.469)" fill="#9f9a9a" fill-rule="evenodd"/>
    <path id="Path_321" data-name="Path 321" d="M102.7,53.9h-.661a.441.441,0,0,0,0,.882h.661a.441.441,0,0,0,0-.882Z" transform="translate(-70.496 553.469)" fill="#9f9a9a" fill-rule="evenodd"/>
    <path id="Path_322" data-name="Path 322" d="M65.422,123.745a1.322,1.322,0,1,0-1.322-1.322A1.334,1.334,0,0,0,65.422,123.745Zm0-1.763a.441.441,0,1,1-.441.441A.445.445,0,0,1,65.422,121.982Z" transform="translate(-40.509 499.732)" fill="#9f9a9a" fill-rule="evenodd"/>
    <path id="Path_323" data-name="Path 323" d="M120.522,123.745a1.322,1.322,0,1,0-1.322-1.322A1.308,1.308,0,0,0,120.522,123.745Zm0-1.763a.441.441,0,1,1-.441.441A.445.445,0,0,1,120.522,121.982Z" transform="translate(-84.57 499.732)" fill="#9f9a9a" fill-rule="evenodd"/>
  </g>
</svg>
