<svg xmlns="http://www.w3.org/2000/svg" width="100%" height="100%" viewBox="0 0 23.489 17.217">
  <g id="Group_262" data-name="Group 262" transform="translate(-331 -439)">
    <path id="Path_324" data-name="Path 324" d="M58.8,67.314s.614-3.626,1.562-3.793S71.7,63.428,71.7,63.428a5.844,5.844,0,0,1,1.859,2.993c.279,1.673-5.782,1.376-5.782,1.376Z" transform="translate(276.659 378.677)" fill="#fff" fill-rule="evenodd"/>
    <path id="Path_325" data-name="Path 325" d="M35.8,53.921v-1.1h2.361c.8,1.413,1.432,2.045,3.161,2.045h5.243v-.892c-1.432-.019-2.752-.056-3.663-.056a7.552,7.552,0,0,1-3.31-.483c0-.465.8-2.993,1.9-3.161h5.094v-.948H43.7l.632-1.58h2.25V46.8H43.7c-.465.8-.632,1.748-1.1,2.529-1.1,0-1.9,0-2.529.632a9.1,9.1,0,0,0-1.1,2.213,7.023,7.023,0,0,0-2.7-.167c-1.413,0-1.58.465-1.413,1.9.149,1.264,1.264.948,2.213,1.264-.167.781-.632.632-.632,2.529,0,4.258.316,2.529.465,3.96.167.8-.149,1.9.316,2.361h5.206V62.585c-1.264-.149-.465.483-1.413.483H37.862V61.953l8.72.074v-.874h-.037c-9.8,0-9.315.948-9.315-3.161,0-2.213.948-2.064.948-3.328l-.167-.112A22.049,22.049,0,0,0,35.8,53.921Z" transform="translate(296.185 392.2)" fill="#9f9a9a" fill-rule="evenodd"/>
    <g id="Group_62" data-name="Group 62" transform="translate(335.143 448.352)">
      <path id="Path_326" data-name="Path 326" d="M60.317,98.55H57.974l-.874-.744.595-.707.632.521h1.989Z" transform="translate(-57.1 -97.1)" fill="#9f9a9a"/>
    </g>
    <path id="Path_327" data-name="Path 327" d="M108.6,53.921v-1.1h-2.38c-.781,1.413-1.413,2.045-3.161,2.045H97.819v-.892c1.413-.019,2.752-.056,3.663-.056a7.676,7.676,0,0,0,3.328-.483c0-.465-.8-2.993-1.9-3.161H97.819v-.948H100.7l-.632-1.58h-2.25V46.8H100.7c.465.8.632,1.748,1.1,2.529,1.1,0,1.9,0,2.529.632a9.1,9.1,0,0,1,1.1,2.213,6.891,6.891,0,0,1,2.677-.167c1.432,0,1.58.465,1.432,1.9-.167,1.264-1.264.948-2.213,1.264.149.781.632.632.632,2.529,0,4.258-.316,2.529-.483,3.96-.149.8.167,1.9-.316,2.361h-5.225V62.585c1.264-.149.483.483,1.432.483h3.161V61.953l-8.72.074v-.874h.037c9.8,0,9.315.948,9.315-3.161,0-2.213-.948-2.064-.948-3.328l.167-.149C107.189,54.237,108.119,54.07,108.6,53.921Z" transform="translate(244.911 392.2)" fill="#9f9a9a" fill-rule="evenodd"/>
    <g id="Group_63" data-name="Group 63" transform="translate(347.136 448.352)">
      <path id="Path_328" data-name="Path 328" d="M123.943,98.55H121.6v-.93h1.989l.632-.521.6.707Z" transform="translate(-121.6 -97.1)" fill="#9f9a9a"/>
    </g>
    <g id="Group_64" data-name="Group 64" transform="translate(337.821 451.216)">
      <rect id="Rectangle_152" data-name="Rectangle 152" width="9.65" height="0.93" transform="translate(0 0)" fill="#9f9a9a"/>
    </g>
  </g>
</svg>
