<svg xmlns="http://www.w3.org/2000/svg" width="100%" height="100%" viewBox="0 0 29.559 12.809">
  <g id="Group_305" data-name="Group 305" transform="translate(-16 -792.933)">
    <path id="Path_65" data-name="Path 65" d="M45.447,152.18a.492.492,0,0,0-.381-.18H41.618a.492.492,0,0,0-.44.273l-2.327,4.654H25.361A2.466,2.466,0,0,0,22.9,159.39v.492a.49.49,0,0,0-.142.022l-5.709,1.756A1.472,1.472,0,0,0,16,163.073v.258a1.479,1.479,0,0,0,1.478,1.478H38.662a.492.492,0,0,0,.2-.044l5.419-2.464a.492.492,0,0,0,.289-.448V160.4a1.48,1.48,0,0,0,.986-1.392v-.231a1.48,1.48,0,0,0-.971-1.387l.961-4.805A.492.492,0,0,0,45.447,152.18Zm-3.525.8h2.543l-.2.986H41.429Zm-.986,1.97h3.131l-.455,2.277-2.429-.3a.482.482,0,0,0-.061,0h-1.17Zm-14.1,2.956h3.941v.493a1.479,1.479,0,0,1-1.478,1.478H26.839Zm-2.956,1.478a1.479,1.479,0,0,1,1.478-1.478h.492v1.97h-1.97Zm-3.941,4.434H17.478a.493.493,0,0,1-.492-.492v-.258a.491.491,0,0,1,.347-.471l2.609-.8Zm11.66,0H29.794a.493.493,0,1,1,0-.986h3.12Zm1.642,0,2.627-1.97h1.871l-1.314,1.97Zm10.345-2.288-5.03,2.288h-.946l1.46-2.19a.492.492,0,0,0-.41-.766H35.706a.492.492,0,0,0-.3.1l-1.183.887H29.794a1.477,1.477,0,0,0-1.393,1.97H20.929V161.5l2.044-.629h6.333a2.466,2.466,0,0,0,2.459-2.463v-.492h8.867v2.464a.492.492,0,0,0,.554.489l2.4-.3Zm.986-2.523a.493.493,0,0,1-.431.489l-2.525.316v-1.84l2.524.316a.493.493,0,0,1,.431.489Z" transform="translate(0 640.933)" fill="#9f9a9a"/>
    <path id="Path_66" data-name="Path 66" d="M288,264h.986v.986H288Z" transform="translate(-255.25 535.83)" fill="#9f9a9a"/>
    <path id="Path_67" data-name="Path 67" d="M320,264h.986v.986H320Z" transform="translate(-285.279 535.83)" fill="#9f9a9a"/>
    <path id="Path_68" data-name="Path 68" d="M352,264h.986v.986H352Z" transform="translate(-315.309 535.83)" fill="#9f9a9a"/>
    <path id="Path_69" data-name="Path 69" d="M384,264h.986v.986H384Z" transform="translate(-345.338 535.83)" fill="#9f9a9a"/>
  </g>
</svg>
