<svg xmlns="http://www.w3.org/2000/svg" width="24.376" height="26.209" viewBox="0 0 24.376 26.209">
  <g id="Group_186" data-name="Group 186" transform="translate(-7075.837 2552.941)">
    <path id="Path_940" data-name="Path 940" d="M6766.73,3068.14a2.451,2.451,0,0,0,1.785-.713,1.447,1.447,0,0,1,1.068-.43,1.515,1.515,0,0,1,1.143.43,2.591,2.591,0,0,0,3.569,0,1.5,1.5,0,0,1,1.139-.43,1.477,1.477,0,0,1,1.075.43,2.306,2.306,0,0,0,1.781.713,2.621,2.621,0,0,0,1.855-.713,1.551,1.551,0,0,1,2.143,0,2.627,2.627,0,0,0,1.853.713,2.314,2.314,0,0,0,1.785-.713A1.464,1.464,0,0,1,6787,3067a1.517,1.517,0,0,1,1.143.43,2.32,2.32,0,0,0,1.781.713.572.572,0,1,0,0-1.143,1.628,1.628,0,0,1-1.068-.427,2.581,2.581,0,0,0-2.5-.643l4-10.064a.67.67,0,0,0-.354-.785l-2.143-.715c0-4.139.143-4.282-.355-4.5l-3.357-1.285v-3.5a.525.525,0,0,0-.57-.572h-2.283v-2a.525.525,0,0,0-.57-.57h-4.855a.561.561,0,0,0-.569.57v2h-2.283a.568.568,0,0,0-.577.572v3.5l-3.351,1.285c-.5.213-.355.356-.355,4.5l-2.075.715a.578.578,0,0,0-.355.785l3.929,10.064c-1.928-.5-2.358,1.07-3.5,1.07a.572.572,0,1,0,0,1.143Zm8.7-2.284c-1.709,0-1.784,1.141-2.924,1.141a1.462,1.462,0,0,1-.646-.142l-3.21-8.064,8.923-3.141v2.069a3.388,3.388,0,0,0-2.854,3.354,3.445,3.445,0,0,0,2.854,3.356v1.713a.572.572,0,1,0,1.143,0v-1.713a3.379,3.379,0,0,0,2.854-3.356,3.327,3.327,0,0,0-2.854-3.354v-2.069l9.209,3.141-3.143,8.064a1.427,1.427,0,0,1-.645.142c-1.14,0-1.283-1.141-2.924-1.141s-1.788,1.141-2.928,1.141-1.211-1.141-2.856-1.141Zm2.143-7v4.426a2.286,2.286,0,0,1,0-4.426Zm1.143,0a2.286,2.286,0,0,1,0,4.426Zm10.349-2.856-.717,1.715-9.632-3.282v-2.071Zm-11.492-1.568-9.349,3.282-.645-1.715,9.994-3.639Zm9.138-3.641v3.141c-9.066-3.141-8.493-3-8.783-2.856l-8.063,2.856V3050.8c.144,0,3.426-1.287,3.5-1.356h9.922c.068.07,3.351,1.356,3.426,1.356Zm-3.712-2.5h-9.421v-2.643H6783Zm-2.856-3.784h-3.712v-1.426h3.712Z" transform="translate(309.702 -5594.875)" fill="#9f9a9a" fill-rule="evenodd"/>
  </g>
</svg>
