<svg id="customer-service" xmlns="http://www.w3.org/2000/svg" width="100%" height="100%" viewBox="0 0 18.096 19.894">
  <path id="Path_605" data-name="Path 605" d="M39.3,14.435l-.022-.026a7.637,7.637,0,0,0-4.232-2.523,5.267,5.267,0,0,0,1.9-2.524h1.333a1.356,1.356,0,0,0,1.354-1.354v-.4a7.606,7.606,0,1,0-15.213,0v.4a1.356,1.356,0,0,0,1.354,1.354h1.284a5.267,5.267,0,0,0,1.944,2.554,7.629,7.629,0,0,0-4.1,2.493l-.022.027a7.4,7.4,0,0,0-1.837,4.873v.585h18.1v-.585A7.4,7.4,0,0,0,39.3,14.435Zm-7.3-2.744a4.077,4.077,0,0,1-3.68-2.33h2.924V8.192H27.975a4.072,4.072,0,1,1,4.031,3.5Zm6.46-3.684a.184.184,0,0,1-.184.184H37.217a5.231,5.231,0,0,0,0-1.17H38.44c.017.193.027.388.027.585ZM32.031,1.17a6.448,6.448,0,0,1,6.193,4.681H36.941a5.242,5.242,0,0,0-9.869,0H25.838A6.448,6.448,0,0,1,32.031,1.17ZM25.778,8.192a.184.184,0,0,1-.184-.184v-.4c0-.2.009-.392.027-.585H26.8a5.231,5.231,0,0,0,0,1.17ZM24.243,18.724a6.315,6.315,0,0,1,1.534-3.533l.022-.027a6.578,6.578,0,0,1,5.055-2.291h2.478a6.578,6.578,0,0,1,5.055,2.291l.022.026a6.316,6.316,0,0,1,1.534,3.533Z" transform="translate(-23.046 0)" fill="#9f9a9a"/>
</svg>
