<svg xmlns="http://www.w3.org/2000/svg" width="100%" height="100%" viewBox="0 0 24.81 20.449">
  <g id="Group_297" data-name="Group 297" transform="translate(-419.512 -901.631)">
    <g id="Group_296" data-name="Group 296" transform="translate(419.512 901.631)">
      <path id="Path_655" data-name="Path 655" d="M1323.093,2720.34a5.323,5.323,0,0,1,9.214-3.3,5.471,5.471,0,0,1,1.41,3.924,5.279,5.279,0,0,1-5.6,4.946A5.337,5.337,0,0,1,1323.093,2720.34Zm3.429-5.917a6.193,6.193,0,0,0-3.25,2.249c-2.049,0-4.814-1.951-6.092-2.249l0-6.032a10.712,10.712,0,0,1,1.572.319c.5.188.609.665.86,1.091.473.81.912,1.67,1.35,2.5l-2.364-.2-.128,1.2,4.26.451,2.607-.034v-1.243h-2.9c-.094-.4-1.806-3.319-2.13-3.9a2.187,2.187,0,0,0-1.84-1.176c-.422-.089-2.228-.417-2.475-.536v8.337c.988.524,5.367,2.577,6.505,2.6a6.032,6.032,0,0,0-.6,3.314,6.566,6.566,0,0,0,6.211,6.075h.652c3.05,0,5.9-2.867,6.143-6.007a5.214,5.214,0,0,0-.532-3.212,26.566,26.566,0,0,0,4.511-.107,2.766,2.766,0,0,0-.055-5.282,27.983,27.983,0,0,0-4.507-.106v1.243h3.9c1.725,0,2.032,3.076-.354,3.076H1333.8a8.68,8.68,0,0,1-1.108-1.082,6.319,6.319,0,0,0-1.3-.89,7,7,0,0,0-3.685-.69l-1.333-6.2c1.593-.008,1.7.324,2.343,1.235,1.461,2.066,3.14,4.162,4.55,6.266l.988-.673c-.3-.583-3.008-4.192-3.625-5.027-2.313-3.139-1.759-2.99-5.76-2.99Z" transform="translate(-1316 -2706.737)" fill="#9f9a9a" fill-rule="evenodd"/>
      <path id="Path_654" data-name="Path 654" d="M4000,5193h1.265v3.494h2.995v1.231h-4.243Z" transform="translate(-3988.567 -5182.408)" fill="#9f9a9a" fill-rule="evenodd"/>
    </g>
  </g>
</svg>
