<svg xmlns="http://www.w3.org/2000/svg" width="100%" height="100%" viewBox="0 0 27.005 13.785">
  <g id="Group_264" data-name="Group 264" transform="translate(-195.318 -319.892)">
    <path id="Path_248" data-name="Path 248" d="M2308.81,2441.031l-.155-.329a2.493,2.493,0,0,0-1.458-1.31,5.823,5.823,0,0,0-4.331.67.158.158,0,0,1-.027.011l-6.66,3.673-6.448-3.476a.532.532,0,0,0-.484-.015l-2.859,1.333a.539.539,0,0,0-.1.92l5.1,3.877-4.377,2.416-2.279-1.23a.546.546,0,0,0-.485-.015l-1.95.909a.54.54,0,0,0-.307.432.531.531,0,0,0,.208.489l4.15,3.154a2.205,2.205,0,0,0,1.337.451,2.246,2.246,0,0,0,.931-.2l2.132-1,16.958-8.106a2.258,2.258,0,0,0,1.113-1.072A1.844,1.844,0,0,0,2308.81,2441.031Z" transform="translate(-2086.671 -2119.312)" fill="#9f9a9a" fill-rule="evenodd"/>
    <path id="Path_249" data-name="Path 249" d="M2722.679,2727.23l-16.959,8.106-2.128.992a1.119,1.119,0,0,1-1.155-.125l-3.438-2.613.894-.416,2.3,1.242a.537.537,0,0,0,.519,0l5.055-2.787,1.215.924a.543.543,0,0,0,.553.061l4.453-2.079a.539.539,0,0,0,.314-.473.551.551,0,0,0-.284-.492l-1.272-.685,6.039-3.328a5.1,5.1,0,0,1,3.373-.651l-1.992,1a.539.539,0,0,0,.242,1.022.562.562,0,0,0,.242-.057l2.438-1.219a.2.2,0,0,1,.019.041l.155.329A.912.912,0,0,1,2722.679,2727.23Z" transform="translate(-2502.103 -2403.837)" fill="#fefefe" fill-rule="evenodd"/>
    <path id="Path_250" data-name="Path 250" d="M3779,3006.841l1.8-.841,7.663,4.135-1.533.716-1.878-1.386a.54.54,0,1,0-.64.871l1.4,1.033-.53.25Z" transform="translate(-3578.014 -2683.962)" fill="#fff" fill-rule="evenodd"/>
  </g>
</svg>
