<svg xmlns="http://www.w3.org/2000/svg" width="100%" height="100%" viewBox="0 0 22.512 15.828">
  <g id="Group_266" data-name="Group 266" transform="translate(-24.403 -837.002)">
    <g id="_317352672" transform="translate(24.403 837.002)">
      <path id="Path_257" data-name="Path 257" d="M281.534,1125H262.979a1.985,1.985,0,0,0-1.979,1.978v11.871a1.985,1.985,0,0,0,1.979,1.979h18.555a1.984,1.984,0,0,0,1.978-1.979v-11.871a1.984,1.984,0,0,0-1.978-1.978Zm.659,1.978v3.3h-9.431a2.071,2.071,0,0,0-3.111-1.067l-.736.5v-3.385h12.619a.661.661,0,0,1,.659.659Zm-16.07,4.584a.751.751,0,1,1,0-1.253l.945.627Zm3.32-.626.945-.627a.751.751,0,1,1,0,1.253Zm-6.464-4.617H267.6v3.385l-.736-.5a2.071,2.071,0,0,0-3.111,1.067H262.32v-3.3a.661.661,0,0,1,.659-.659Zm-.659,12.531v-7.255h1.429a2.08,2.08,0,0,0,2.363,1.374l-1.044,1.561a.658.658,0,0,0,1.1.725l1.429-2.143v6.4h-4.617a.661.661,0,0,1-.659-.66Zm19.214.66H268.915v-6.4l1.429,2.143a.658.658,0,1,0,1.1-.725l-1.044-1.561a2.069,2.069,0,0,0,2.363-1.374h9.431v7.255a.661.661,0,0,1-.659.66Z" transform="translate(-261 -1125)" fill="#9f9a9a" fill-rule="evenodd"/>
      <rect id="Rectangle_115" data-name="Rectangle 115" width="8" transform="translate(11.597 10.998)" fill="#9f9a9a"/>
      <rect id="Rectangle_116" data-name="Rectangle 116" width="8" height="2" rx="1" transform="translate(11.597 10.998)" fill="#9f9a9a"/>
      <rect id="Rectangle_117" data-name="Rectangle 117" width="8" height="2" rx="1" transform="translate(11.597 7.998)" fill="#9f9a9a"/>
    </g>
  </g>
</svg>
