<svg xmlns="http://www.w3.org/2000/svg" width="100%" height="100%" viewBox="0 0 21.323 21.323">
  <g id="sunbed" transform="translate(0)">
    <path id="Path_643" data-name="Path 643" d="M17.575,26.571h-.013l-.718-1.249h1.981V24.072H11.6l-1.692-2.82-1.071.643,2.056,3.427H12.01l-.864,1.249H5.58l2.236-8.21,6.746,1.808.162-.6A7.5,7.5,0,1,0,.242,15.685l-.162.6,6.529,1.749L4.285,26.571H3.748A3.752,3.752,0,0,0,0,30.319v.708H21.323v-.708a3.752,3.752,0,0,0-3.748-3.748ZM5.244,16.378c.938-2.991,2.571-4.816,3.636-4.816.843,0,1.24,1.212,1.378,2.043a10.951,10.951,0,0,1-.212,4.059Zm8.405,2.252-2.4-.642a11.469,11.469,0,0,0,.086-5.282A6.252,6.252,0,0,1,13.649,18.63ZM6.6,11.439a11.536,11.536,0,0,0-2.564,4.616l-2.4-.642A6.26,6.26,0,0,1,6.6,11.439Zm6.929,13.883H15.4l.718,1.249H12.665ZM1.308,29.777a2.5,2.5,0,0,1,2.44-1.957H17.575a2.5,2.5,0,0,1,2.44,1.957Z" transform="translate(0 -9.704)" fill="#9f9a9a"/>
    <path id="Path_644" data-name="Path 644" d="M394.5,5A2.5,2.5,0,1,0,392,2.5,2.5,2.5,0,0,0,394.5,5Zm0-3.748A1.249,1.249,0,1,1,393.249,2.5,1.251,1.251,0,0,1,394.5,1.249Z" transform="translate(-375.675)" fill="#9f9a9a"/>
  </g>
</svg>
