<svg xmlns="http://www.w3.org/2000/svg" width="100%" height="100%" viewBox="0 0 29.915 20.103">
  <g id="Group_260" data-name="Group 260" transform="translate(-335 -358.622)">
    <g id="Group_65" data-name="Group 65" transform="translate(343.496 358.622)">
      <path id="Path_329" data-name="Path 329" d="M85.165,74.943H72.9V56.535A1.643,1.643,0,0,1,74.535,54.9H83.55a1.643,1.643,0,0,1,1.635,1.635V74.943ZM73.9,73.926H84.188V56.535a.656.656,0,0,0-.638-.638H74.515a.643.643,0,0,0-.638.638V73.926Z" transform="translate(-72.9 -54.9)" fill="#9f9a9a"/>
    </g>
    <g id="Group_66" data-name="Group 66" transform="translate(354.903 364.785)">
      <path id="Path_330" data-name="Path 330" d="M138.716,99.681H130.1V87.156a1.358,1.358,0,0,1,1.356-1.356h5.923a1.358,1.358,0,0,1,1.356,1.356V99.681ZM131.1,98.663h6.621V87.156a.358.358,0,0,0-.359-.359h-5.923a.341.341,0,0,0-.339.359Z" transform="translate(-130.1 -85.8)" fill="#9f9a9a"/>
    </g>
    <g id="Group_67" data-name="Group 67" transform="translate(347.265 371.406)">
      <path id="Path_331" data-name="Path 331" d="M95.589,126.239H92.717a.928.928,0,0,1-.917-.917v-5.4a.928.928,0,0,1,.917-.917h2.872a.928.928,0,0,1,.917.917v5.4A.9.9,0,0,1,95.589,126.239Zm-2.772-1h2.692V120H92.817Z" transform="translate(-91.8 -119)" fill="#9f9a9a"/>
    </g>
    <g id="Group_68" data-name="Group 68" transform="translate(357.935 374.457)">
      <path id="Path_332" data-name="Path 332" d="M147.294,138.129h-1.436a.557.557,0,0,1-.558-.558v-2.712a.557.557,0,0,1,.558-.558h1.436a.557.557,0,0,1,.558.558v2.712A.557.557,0,0,1,147.294,138.129Zm-1.3-.7h1.137v-2.413H146Z" transform="translate(-145.3 -134.3)" fill="#9f9a9a"/>
    </g>
    <g id="Group_69" data-name="Group 69" transform="translate(350.476 361.693)">
      <path id="Path_333" data-name="Path 333" d="M108.2,70.3h2.074c.16,0,.3.08.3.179v2.333c0,.1-.14.179-.3.179H108.2c-.16,0-.3-.08-.3-.179V70.479C107.9,70.38,108.04,70.3,108.2,70.3Z" transform="translate(-107.9 -70.3)" fill="#9f9a9a" fill-rule="evenodd"/>
    </g>
    <g id="Group_70" data-name="Group 70" transform="translate(346.208 361.693)">
      <path id="Path_334" data-name="Path 334" d="M86.8,70.3h2.074c.16,0,.3.08.3.179v2.333c0,.1-.14.179-.3.179H86.8c-.16,0-.3-.08-.3-.179V70.479C86.5,70.38,86.64,70.3,86.8,70.3Z" transform="translate(-86.5 -70.3)" fill="#9f9a9a" fill-rule="evenodd"/>
    </g>
    <g id="Group_71" data-name="Group 71" transform="translate(350.476 365.782)">
      <path id="Path_335" data-name="Path 335" d="M108.2,90.8h2.074c.16,0,.3.08.3.179v2.333c0,.1-.14.179-.3.179H108.2c-.16,0-.3-.08-.3-.179V90.979C107.9,90.88,108.04,90.8,108.2,90.8Z" transform="translate(-107.9 -90.8)" fill="#9f9a9a" fill-rule="evenodd"/>
    </g>
    <g id="Group_72" data-name="Group 72" transform="translate(346.208 365.782)">
      <path id="Path_336" data-name="Path 336" d="M86.8,90.8h2.074c.16,0,.3.08.3.179v2.333c0,.1-.14.179-.3.179H86.8c-.16,0-.3-.08-.3-.179V90.979C86.5,90.88,86.64,90.8,86.8,90.8Z" transform="translate(-86.5 -90.8)" fill="#9f9a9a" fill-rule="evenodd"/>
    </g>
    <g id="Group_73" data-name="Group 73" transform="translate(359.57 367.457)">
      <path id="Path_337" data-name="Path 337" d="M155.175,101.274H153.9a.364.364,0,0,1-.4-.319V99.519a.364.364,0,0,1,.4-.319h1.276a.364.364,0,0,1,.4.319v1.436A.364.364,0,0,1,155.175,101.274Zm-1.256-.419h1.217V99.619h-1.217Z" transform="translate(-153.5 -99.2)" fill="#9f9a9a"/>
    </g>
    <g id="Group_74" data-name="Group 74" transform="translate(356.938 367.457)">
      <path id="Path_338" data-name="Path 338" d="M141.975,101.274H140.7a.364.364,0,0,1-.4-.319V99.519a.364.364,0,0,1,.4-.319h1.276a.364.364,0,0,1,.4.319v1.436A.364.364,0,0,1,141.975,101.274Zm-1.256-.419h1.217V99.619h-1.217Z" transform="translate(-140.3 -99.2)" fill="#9f9a9a"/>
    </g>
    <g id="Group_75" data-name="Group 75" transform="translate(359.57 369.99)">
      <path id="Path_339" data-name="Path 339" d="M155.175,113.974H153.9a.364.364,0,0,1-.4-.319v-1.436a.364.364,0,0,1,.4-.319h1.276a.364.364,0,0,1,.4.319v1.436A.364.364,0,0,1,155.175,113.974Zm-1.256-.439h1.217v-1.217h-1.217Z" transform="translate(-153.5 -111.9)" fill="#9f9a9a"/>
    </g>
    <g id="Group_76" data-name="Group 76" transform="translate(356.938 369.99)">
      <path id="Path_340" data-name="Path 340" d="M141.975,113.974H140.7a.364.364,0,0,1-.4-.319v-1.436a.364.364,0,0,1,.4-.319h1.276a.364.364,0,0,1,.4.319v1.436A.364.364,0,0,1,141.975,113.974Zm-1.256-.439h1.217v-1.217h-1.217Z" transform="translate(-140.3 -111.9)" fill="#9f9a9a"/>
    </g>
    <g id="Group_77" data-name="Group 77" transform="translate(335 377.588)">
      <rect id="Rectangle_153" data-name="Rectangle 153" width="29.915" height="1.137" transform="translate(0)" fill="#9f9a9a"/>
    </g>
    <g id="Group_78" data-name="Group 78" transform="translate(335.858 364.785)">
      <path id="Path_341" data-name="Path 341" d="M43.235,99.681H34.6V87.156A1.358,1.358,0,0,1,35.956,85.8h5.923a1.358,1.358,0,0,1,1.356,1.356ZM35.6,98.663h6.621V87.156a.357.357,0,0,0-.359-.359h-5.9a.341.341,0,0,0-.339.359V98.663Z" transform="translate(-34.6 -85.8)" fill="#9f9a9a"/>
    </g>
    <g id="Group_79" data-name="Group 79" transform="translate(338.889 374.457)">
      <path id="Path_342" data-name="Path 342" d="M51.794,138.129H50.358a.557.557,0,0,1-.558-.558v-2.712a.557.557,0,0,1,.558-.558h1.436a.557.557,0,0,1,.558.558v2.712A.534.534,0,0,1,51.794,138.129Zm-1.276-.7h1.137v-2.413H50.518Z" transform="translate(-49.8 -134.3)" fill="#9f9a9a"/>
    </g>
    <g id="Group_80" data-name="Group 80" transform="translate(340.524 367.457)">
      <path id="Path_343" data-name="Path 343" d="M59.675,101.274H58.4a.364.364,0,0,1-.4-.319V99.519a.364.364,0,0,1,.4-.319h1.276a.364.364,0,0,1,.4.319v1.436A.364.364,0,0,1,59.675,101.274Zm-1.236-.419h1.217V99.619H58.439Z" transform="translate(-58 -99.2)" fill="#9f9a9a"/>
    </g>
    <g id="Group_81" data-name="Group 81" transform="translate(337.892 367.457)">
      <path id="Path_344" data-name="Path 344" d="M46.475,101.274H45.2a.364.364,0,0,1-.4-.319V99.519a.364.364,0,0,1,.4-.319h1.276a.364.364,0,0,1,.4.319v1.436C46.874,101.135,46.715,101.274,46.475,101.274Zm-1.236-.419h1.217V99.619H45.239Z" transform="translate(-44.8 -99.2)" fill="#9f9a9a"/>
    </g>
    <g id="Group_82" data-name="Group 82" transform="translate(340.524 369.99)">
      <path id="Path_345" data-name="Path 345" d="M59.675,113.974H58.4a.364.364,0,0,1-.4-.319v-1.436a.364.364,0,0,1,.4-.319h1.276a.364.364,0,0,1,.4.319v1.436A.364.364,0,0,1,59.675,113.974Zm-1.236-.439h1.217v-1.217H58.439Z" transform="translate(-58 -111.9)" fill="#9f9a9a"/>
    </g>
    <g id="Group_83" data-name="Group 83" transform="translate(337.892 369.99)">
      <path id="Path_346" data-name="Path 346" d="M46.475,113.974H45.2a.364.364,0,0,1-.4-.319v-1.436a.364.364,0,0,1,.4-.319h1.276a.364.364,0,0,1,.4.319v1.436C46.874,113.835,46.715,113.974,46.475,113.974Zm-1.236-.439h1.217v-1.217H45.239Z" transform="translate(-44.8 -111.9)" fill="#9f9a9a"/>
    </g>
  </g>
</svg>
