<svg xmlns="http://www.w3.org/2000/svg" width="15.225" height="19.988" viewBox="0 0 15.225 19.988">
  <g id="google-docs" transform="translate(-61)">
    <path id="Path_615" data-name="Path 615" d="M76.054,4.856,71.369.172A.586.586,0,0,0,70.955,0h-8.2A1.759,1.759,0,0,0,61,1.757V18.231a1.759,1.759,0,0,0,1.757,1.757H74.469a1.759,1.759,0,0,0,1.757-1.757V5.27A.591.591,0,0,0,76.054,4.856ZM71.541,2l2.685,2.685h-2.1a.586.586,0,0,1-.586-.586Zm2.928,16.818H62.757a.586.586,0,0,1-.586-.586V1.757a.586.586,0,0,1,.586-.586h7.613V4.1a1.759,1.759,0,0,0,1.757,1.757h2.928V18.231A.586.586,0,0,1,74.469,18.817Z" fill="#9f9a9a"/>
    <path id="Path_616" data-name="Path 616" d="M158.613,212h-7.027a.586.586,0,0,0,0,1.171h7.027a.586.586,0,0,0,0-1.171Z" transform="translate(-86.486 -203.724)" fill="#9f9a9a"/>
    <path id="Path_617" data-name="Path 617" d="M158.613,272h-7.027a.586.586,0,1,0,0,1.171h7.027a.586.586,0,1,0,0-1.171Z" transform="translate(-86.486 -261.381)" fill="#9f9a9a"/>
    <path id="Path_618" data-name="Path 618" d="M158.613,332h-7.027a.586.586,0,1,0,0,1.171h7.027a.586.586,0,1,0,0-1.171Z" transform="translate(-86.486 -319.039)" fill="#9f9a9a"/>
    <path id="Path_619" data-name="Path 619" d="M156.27,392h-4.685a.586.586,0,0,0,0,1.171h4.685a.586.586,0,0,0,0-1.171Z" transform="translate(-86.486 -376.697)" fill="#9f9a9a"/>
  </g>
</svg>
