<svg id="promotion" xmlns="http://www.w3.org/2000/svg" width="100%" height="100%" viewBox="0 0 22.192 21">
  <path id="Path_599" data-name="Path 599" d="M122.614,290.384a.433.433,0,1,0-.592-.159A.434.434,0,0,0,122.614,290.384Zm0,0" transform="translate(-116.677 -277.024)" fill="#9f9a9a"/>
  <path id="Path_600" data-name="Path 600" d="M4.16,37.738l2.183,3.781a1.734,1.734,0,1,0,3-1.734l-1.3-2.253,1.126-.65a.434.434,0,0,0,.159-.592l-.564-.976,8.3-1.628a1.3,1.3,0,0,0,1.054-1.948l-1.441-2.5.921-1.394a.434.434,0,0,0,.014-.456l-.867-1.5a.434.434,0,0,0-.4-.216l-1.668.1-1.6-2.77a1.289,1.289,0,0,0-1.11-.65h-.017a1.289,1.289,0,0,0-1.095.6L5.2,30.168,1.517,32.293A3.034,3.034,0,0,0,4.16,37.738ZM8.6,40.219a.867.867,0,0,1-1.5.867L4.927,37.332l1.5-.867L8.6,40.219Zm-.983-3.437-.433-.751L7.93,35.6l.433.751Zm8.521-10.225.6,1.038L16.2,28.4l-1.032-1.788ZM11.585,23.43a.433.433,0,0,1,.745.009l5.042,8.732a.433.433,0,0,1-.365.65,1.592,1.592,0,0,0-.238.04l-5.333-9.237c.112-.144.126-.158.148-.194Zm-.725.929,5.011,8.679L8.309,34.521l-2.3-3.982ZM1.157,36a2.166,2.166,0,0,1,.793-2.96l3.378-1.951L7.5,34.847,4.118,36.8A2.17,2.17,0,0,1,1.157,36Zm0,0" transform="translate(0 -21.387)" fill="#9f9a9a"/>
  <path id="Path_601" data-name="Path 601" d="M45.426,309.789a.434.434,0,0,0-.592-.159l-.751.433a.434.434,0,0,1-.592-.159.433.433,0,0,0-.751.433,1.3,1.3,0,0,0,1.776.476l.751-.433a.434.434,0,0,0,.159-.592Zm0,0" transform="translate(-40.832 -296.154)" fill="#9f9a9a"/>
  <path id="Path_602" data-name="Path 602" d="M438.913,42.536,436.5,43.88a.433.433,0,0,0,.422.758l2.415-1.344a.433.433,0,0,0-.421-.758Zm0,0" transform="translate(-417.365 -40.64)" fill="#9f9a9a"/>
  <path id="Path_603" data-name="Path 603" d="M442.284,137.085l-1.675-.449a.433.433,0,1,0-.224.837l1.675.449a.433.433,0,1,0,.224-.837Zm0,0" transform="translate(-420.989 -130.699)" fill="#9f9a9a"/>
  <path id="Path_604" data-name="Path 604" d="M383.956.322,383.507,2a.434.434,0,1,0,.837.225l.449-1.675a.433.433,0,1,0-.837-.225Zm0,0" transform="translate(-366.87 0)" fill="#9f9a9a"/>
</svg>
