<svg xmlns="http://www.w3.org/2000/svg" width="32.92" height="32.92" viewBox="0 0 32.92 32.92">
  <path id="user" d="M16.46,32.92A16.46,16.46,0,0,1,4.821,4.821,16.46,16.46,0,0,1,28.1,28.1,16.353,16.353,0,0,1,16.46,32.92Zm0-30.348A13.888,13.888,0,1,0,30.348,16.46,13.9,13.9,0,0,0,16.46,2.572ZM16.4,17.682a6.173,6.173,0,1,1,6.173-6.173A6.179,6.179,0,0,1,16.4,17.682Zm0-9.773a3.6,3.6,0,1,0,3.6,3.6A3.6,3.6,0,0,0,16.4,7.909Zm8.147,17.262a1.286,1.286,0,0,0,.18-1.81,9.5,9.5,0,0,0-7.371-3.493H15.826a9.5,9.5,0,0,0-7.371,3.493,1.286,1.286,0,0,0,1.99,1.63,6.932,6.932,0,0,1,5.382-2.551h1.526a6.933,6.933,0,0,1,5.382,2.551,1.286,1.286,0,0,0,1.81.18Z" transform="translate(0 0)" fill="#9f9a9a"/>
</svg>
