<svg xmlns="http://www.w3.org/2000/svg" width="100%" height="100%" viewBox="0 0 19 17.575">
  <g id="wallet_1_" data-name="wallet (1)" transform="translate(0 -19.098)">
    <path id="Path_626" data-name="Path 626" d="M17.262,23.132h-.236v-2.3A1.74,1.74,0,0,0,15.288,19.1H2.684a2.687,2.687,0,0,0-2.67,2.42C-.006,21.614,0,20.76,0,33.99a2.686,2.686,0,0,0,2.683,2.683H17.262A1.74,1.74,0,0,0,19,34.936V24.869a1.74,1.74,0,0,0-1.738-1.738ZM2.684,20.292h12.6a.545.545,0,0,1,.544.544v2.3H2.684a1.422,1.422,0,1,1,0-2.84ZM17.262,35.48H2.684A1.491,1.491,0,0,1,1.194,33.99V23.873a2.668,2.668,0,0,0,1.489.452H17.262a.545.545,0,0,1,.544.544v2.42H13.315a2.774,2.774,0,1,0,0,5.548h4.491v2.1A.545.545,0,0,1,17.262,35.48Zm.544-3.837H13.315a1.58,1.58,0,1,1,0-3.161h4.491Z" transform="translate(0)" fill="#9f9a9a"/>
    <circle id="Ellipse_22" data-name="Ellipse 22" cx="0.865" cy="0.865" r="0.865" transform="translate(12.67 29.198)" fill="#9f9a9a"/>
  </g>
</svg>
